; NON-PLATED HOLES START AT T1
; THROUGH (PLATED) HOLES START AT T100
M48
INCH
T1C0.118110
T100C0.035000
T101C0.040000
T102C0.042000
T103C0.038000
%
T1
X034273Y022306
X034273Y001306
X001272Y001306
X001272Y022306
T100
X028273Y017306
X018273Y013306
X023273Y017306
X028273Y013306
X023273Y013306
X018273Y017306
T101
X030273Y019306
X033273Y019206
X031273Y019206
X032273Y019306
T102
X018273Y011306
X024273Y011306
X020273Y011306
X028273Y011306
X019273Y011306
X030273Y011306
X023273Y011306
X029273Y011306
X025273Y011306
T103
X022273Y006306
X003272Y004306
X003272Y010306
X020273Y002306
X013273Y004306
X013273Y010306
X003272Y014306
X029273Y006306
X019273Y002306
X013273Y005306
X013273Y014306
X022273Y007306
X003272Y009306
X003272Y015306
X013273Y009306
X013273Y015306
X029273Y007306
X003272Y006306
X003272Y011306
X013273Y006306
X013273Y011306
X003272Y016306
X013273Y016306
X003272Y007306
X013273Y007306
X003272Y017306
X003272Y012306
X013273Y017306
X013273Y012306
X003273Y005306
X003272Y008306
X003272Y013306
X013273Y008306
X013273Y013306
X003272Y018306
X013273Y018306
T00
M30
