G04 MADE WITH FRITZING*
G04 WWW.FRITZING.ORG*
G04 DOUBLE SIDED*
G04 HOLES PLATED*
G04 CONTOUR ON CENTER OF CONTOUR VECTOR*
%ASAXBY*%
%FSLAX23Y23*%
%MOIN*%
%OFA0B0*%
%SFA1.0B1.0*%
%ADD10C,0.062000*%
%ADD11C,0.092000*%
%ADD12C,0.085000*%
%ADD13C,0.088000*%
%ADD14C,0.128110*%
%ADD15C,0.084000*%
%ADD16R,0.092000X0.092000*%
%ADD17R,0.088000X0.088000*%
%ADD18R,0.001000X0.001000*%
%LNMASK0*%
G90*
G70*
G54D10*
X1327Y431D03*
X1327Y531D03*
X1327Y631D03*
X1327Y731D03*
X1327Y831D03*
X1327Y931D03*
X1327Y1031D03*
X1327Y1131D03*
X1327Y1231D03*
X1327Y1331D03*
X1327Y1431D03*
X1327Y1531D03*
X1327Y1631D03*
X1327Y1731D03*
X1327Y1831D03*
X327Y1831D03*
X327Y1731D03*
X327Y1631D03*
X327Y1531D03*
X327Y1431D03*
X327Y1331D03*
X327Y1231D03*
X327Y1131D03*
X327Y1031D03*
X327Y931D03*
X327Y831D03*
X327Y731D03*
X327Y631D03*
X327Y531D03*
X327Y431D03*
G54D11*
X1827Y1131D03*
X1927Y1131D03*
X2027Y1131D03*
X2327Y1131D03*
X2427Y1131D03*
X2527Y1131D03*
X2827Y1131D03*
X2927Y1131D03*
X3027Y1131D03*
G54D12*
X2827Y1731D03*
X2827Y1331D03*
X2327Y1731D03*
X2327Y1331D03*
X1827Y1731D03*
X1827Y1331D03*
G54D13*
X2027Y231D03*
X1927Y231D03*
X2227Y731D03*
X2227Y631D03*
X2927Y731D03*
X2927Y631D03*
G54D14*
X127Y2231D03*
X127Y131D03*
X3427Y2231D03*
X3427Y131D03*
G54D15*
X3327Y1921D03*
X3227Y1931D03*
X3127Y1921D03*
X3027Y1931D03*
G54D16*
X1827Y1131D03*
X2327Y1131D03*
X2827Y1131D03*
G54D17*
X2027Y231D03*
G54D18*
X3285Y1963D02*
X3368Y1963D01*
X3285Y1962D02*
X3368Y1962D01*
X3285Y1961D02*
X3368Y1961D01*
X3285Y1960D02*
X3368Y1960D01*
X3285Y1959D02*
X3368Y1959D01*
X3285Y1958D02*
X3368Y1958D01*
X3285Y1957D02*
X3368Y1957D01*
X3285Y1956D02*
X3368Y1956D01*
X3285Y1955D02*
X3368Y1955D01*
X3285Y1954D02*
X3368Y1954D01*
X3285Y1953D02*
X3368Y1953D01*
X3285Y1952D02*
X3368Y1952D01*
X3285Y1951D02*
X3368Y1951D01*
X3285Y1950D02*
X3368Y1950D01*
X3285Y1949D02*
X3368Y1949D01*
X3285Y1948D02*
X3368Y1948D01*
X3285Y1947D02*
X3368Y1947D01*
X3285Y1946D02*
X3368Y1946D01*
X3285Y1945D02*
X3368Y1945D01*
X3285Y1944D02*
X3368Y1944D01*
X3285Y1943D02*
X3368Y1943D01*
X3285Y1942D02*
X3368Y1942D01*
X3285Y1941D02*
X3368Y1941D01*
X3285Y1940D02*
X3368Y1940D01*
X3285Y1939D02*
X3368Y1939D01*
X3285Y1938D02*
X3368Y1938D01*
X3285Y1937D02*
X3368Y1937D01*
X3285Y1936D02*
X3325Y1936D01*
X3328Y1936D02*
X3368Y1936D01*
X3285Y1935D02*
X3320Y1935D01*
X3333Y1935D02*
X3368Y1935D01*
X3285Y1934D02*
X3318Y1934D01*
X3335Y1934D02*
X3368Y1934D01*
X3285Y1933D02*
X3316Y1933D01*
X3337Y1933D02*
X3368Y1933D01*
X3285Y1932D02*
X3315Y1932D01*
X3338Y1932D02*
X3368Y1932D01*
X3285Y1931D02*
X3314Y1931D01*
X3339Y1931D02*
X3368Y1931D01*
X3285Y1930D02*
X3314Y1930D01*
X3339Y1930D02*
X3368Y1930D01*
X3285Y1929D02*
X3313Y1929D01*
X3340Y1929D02*
X3368Y1929D01*
X3285Y1928D02*
X3312Y1928D01*
X3341Y1928D02*
X3368Y1928D01*
X3285Y1927D02*
X3312Y1927D01*
X3341Y1927D02*
X3368Y1927D01*
X3285Y1926D02*
X3312Y1926D01*
X3341Y1926D02*
X3368Y1926D01*
X3285Y1925D02*
X3311Y1925D01*
X3342Y1925D02*
X3368Y1925D01*
X3285Y1924D02*
X3311Y1924D01*
X3342Y1924D02*
X3368Y1924D01*
X3285Y1923D02*
X3311Y1923D01*
X3342Y1923D02*
X3368Y1923D01*
X3285Y1922D02*
X3311Y1922D01*
X3342Y1922D02*
X3368Y1922D01*
X3285Y1921D02*
X3311Y1921D01*
X3342Y1921D02*
X3368Y1921D01*
X3285Y1920D02*
X3311Y1920D01*
X3342Y1920D02*
X3368Y1920D01*
X3285Y1919D02*
X3311Y1919D01*
X3342Y1919D02*
X3368Y1919D01*
X3285Y1918D02*
X3311Y1918D01*
X3342Y1918D02*
X3368Y1918D01*
X3285Y1917D02*
X3311Y1917D01*
X3342Y1917D02*
X3368Y1917D01*
X3285Y1916D02*
X3312Y1916D01*
X3341Y1916D02*
X3368Y1916D01*
X3285Y1915D02*
X3312Y1915D01*
X3341Y1915D02*
X3368Y1915D01*
X3285Y1914D02*
X3312Y1914D01*
X3341Y1914D02*
X3368Y1914D01*
X3285Y1913D02*
X3313Y1913D01*
X3340Y1913D02*
X3368Y1913D01*
X3285Y1912D02*
X3314Y1912D01*
X3339Y1912D02*
X3368Y1912D01*
X3285Y1911D02*
X3314Y1911D01*
X3339Y1911D02*
X3368Y1911D01*
X3285Y1910D02*
X3315Y1910D01*
X3338Y1910D02*
X3368Y1910D01*
X3285Y1909D02*
X3316Y1909D01*
X3336Y1909D02*
X3368Y1909D01*
X3285Y1908D02*
X3318Y1908D01*
X3335Y1908D02*
X3368Y1908D01*
X3285Y1907D02*
X3320Y1907D01*
X3333Y1907D02*
X3368Y1907D01*
X3285Y1906D02*
X3368Y1906D01*
X3285Y1905D02*
X3368Y1905D01*
X3285Y1904D02*
X3368Y1904D01*
X3285Y1903D02*
X3368Y1903D01*
X3285Y1902D02*
X3368Y1902D01*
X3285Y1901D02*
X3368Y1901D01*
X3285Y1900D02*
X3368Y1900D01*
X3285Y1899D02*
X3368Y1899D01*
X3285Y1898D02*
X3368Y1898D01*
X3285Y1897D02*
X3368Y1897D01*
X3285Y1896D02*
X3368Y1896D01*
X3285Y1895D02*
X3368Y1895D01*
X3285Y1894D02*
X3368Y1894D01*
X3285Y1893D02*
X3368Y1893D01*
X3285Y1892D02*
X3368Y1892D01*
X3285Y1891D02*
X3368Y1891D01*
X3285Y1890D02*
X3368Y1890D01*
X3285Y1889D02*
X3368Y1889D01*
X3285Y1888D02*
X3368Y1888D01*
X3285Y1887D02*
X3368Y1887D01*
X3285Y1886D02*
X3368Y1886D01*
X3285Y1885D02*
X3368Y1885D01*
X3285Y1884D02*
X3368Y1884D01*
X3285Y1883D02*
X3368Y1883D01*
X3285Y1882D02*
X3368Y1882D01*
X3285Y1881D02*
X3368Y1881D01*
X3285Y1880D02*
X3368Y1880D01*
X302Y1867D02*
X354Y1867D01*
X1299Y1867D02*
X1352Y1867D01*
X295Y1866D02*
X361Y1866D01*
X1292Y1866D02*
X1359Y1866D01*
X292Y1865D02*
X365Y1865D01*
X1289Y1865D02*
X1362Y1865D01*
X289Y1864D02*
X367Y1864D01*
X1287Y1864D02*
X1365Y1864D01*
X287Y1863D02*
X369Y1863D01*
X1285Y1863D02*
X1367Y1863D01*
X285Y1862D02*
X371Y1862D01*
X1283Y1862D02*
X1368Y1862D01*
X284Y1861D02*
X372Y1861D01*
X1281Y1861D02*
X1370Y1861D01*
X282Y1860D02*
X374Y1860D01*
X1280Y1860D02*
X1371Y1860D01*
X281Y1859D02*
X375Y1859D01*
X1279Y1859D02*
X1373Y1859D01*
X280Y1858D02*
X376Y1858D01*
X1277Y1858D02*
X1374Y1858D01*
X279Y1857D02*
X378Y1857D01*
X1276Y1857D02*
X1375Y1857D01*
X278Y1856D02*
X379Y1856D01*
X1275Y1856D02*
X1376Y1856D01*
X277Y1855D02*
X380Y1855D01*
X1274Y1855D02*
X1377Y1855D01*
X276Y1854D02*
X380Y1854D01*
X1273Y1854D02*
X1378Y1854D01*
X275Y1853D02*
X381Y1853D01*
X1273Y1853D02*
X1379Y1853D01*
X274Y1852D02*
X382Y1852D01*
X1272Y1852D02*
X1380Y1852D01*
X274Y1851D02*
X383Y1851D01*
X1271Y1851D02*
X1380Y1851D01*
X273Y1850D02*
X384Y1850D01*
X1270Y1850D02*
X1381Y1850D01*
X272Y1849D02*
X384Y1849D01*
X1270Y1849D02*
X1382Y1849D01*
X272Y1848D02*
X385Y1848D01*
X1269Y1848D02*
X1382Y1848D01*
X271Y1847D02*
X385Y1847D01*
X1268Y1847D02*
X1383Y1847D01*
X270Y1846D02*
X386Y1846D01*
X1268Y1846D02*
X1383Y1846D01*
X270Y1845D02*
X386Y1845D01*
X1267Y1845D02*
X1384Y1845D01*
X270Y1844D02*
X387Y1844D01*
X1267Y1844D02*
X1384Y1844D01*
X269Y1843D02*
X387Y1843D01*
X1267Y1843D02*
X1385Y1843D01*
X269Y1842D02*
X388Y1842D01*
X1266Y1842D02*
X1385Y1842D01*
X268Y1841D02*
X388Y1841D01*
X1266Y1841D02*
X1385Y1841D01*
X268Y1840D02*
X388Y1840D01*
X1266Y1840D02*
X1386Y1840D01*
X268Y1839D02*
X389Y1839D01*
X1265Y1839D02*
X1386Y1839D01*
X268Y1838D02*
X389Y1838D01*
X1265Y1838D02*
X1386Y1838D01*
X267Y1837D02*
X389Y1837D01*
X1265Y1837D02*
X1387Y1837D01*
X267Y1836D02*
X324Y1836D01*
X333Y1836D02*
X389Y1836D01*
X1265Y1836D02*
X1320Y1836D01*
X1329Y1836D02*
X1387Y1836D01*
X267Y1835D02*
X323Y1835D01*
X333Y1835D02*
X389Y1835D01*
X1264Y1835D02*
X1320Y1835D01*
X1330Y1835D02*
X1387Y1835D01*
X267Y1834D02*
X322Y1834D01*
X334Y1834D02*
X389Y1834D01*
X1264Y1834D02*
X1319Y1834D01*
X1331Y1834D02*
X1387Y1834D01*
X267Y1833D02*
X322Y1833D01*
X335Y1833D02*
X390Y1833D01*
X1264Y1833D02*
X1318Y1833D01*
X1331Y1833D02*
X1387Y1833D01*
X267Y1832D02*
X321Y1832D01*
X335Y1832D02*
X390Y1832D01*
X1264Y1832D02*
X1318Y1832D01*
X1332Y1832D02*
X1387Y1832D01*
X267Y1831D02*
X321Y1831D01*
X335Y1831D02*
X390Y1831D01*
X1264Y1831D02*
X1318Y1831D01*
X1332Y1831D02*
X1387Y1831D01*
X267Y1830D02*
X321Y1830D01*
X335Y1830D02*
X390Y1830D01*
X1264Y1830D02*
X1318Y1830D01*
X1332Y1830D02*
X1387Y1830D01*
X267Y1829D02*
X322Y1829D01*
X335Y1829D02*
X390Y1829D01*
X1264Y1829D02*
X1318Y1829D01*
X1331Y1829D02*
X1387Y1829D01*
X267Y1828D02*
X322Y1828D01*
X334Y1828D02*
X389Y1828D01*
X1264Y1828D02*
X1319Y1828D01*
X1331Y1828D02*
X1387Y1828D01*
X267Y1827D02*
X323Y1827D01*
X333Y1827D02*
X389Y1827D01*
X1264Y1827D02*
X1320Y1827D01*
X1330Y1827D02*
X1387Y1827D01*
X267Y1826D02*
X324Y1826D01*
X333Y1826D02*
X389Y1826D01*
X1265Y1826D02*
X1320Y1826D01*
X1329Y1826D02*
X1387Y1826D01*
X267Y1825D02*
X326Y1825D01*
X330Y1825D02*
X389Y1825D01*
X1265Y1825D02*
X1323Y1825D01*
X1327Y1825D02*
X1387Y1825D01*
X268Y1824D02*
X389Y1824D01*
X1265Y1824D02*
X1386Y1824D01*
X268Y1823D02*
X389Y1823D01*
X1265Y1823D02*
X1386Y1823D01*
X268Y1822D02*
X388Y1822D01*
X1266Y1822D02*
X1386Y1822D01*
X268Y1821D02*
X388Y1821D01*
X1266Y1821D02*
X1385Y1821D01*
X269Y1820D02*
X388Y1820D01*
X1266Y1820D02*
X1385Y1820D01*
X269Y1819D02*
X387Y1819D01*
X1267Y1819D02*
X1385Y1819D01*
X270Y1818D02*
X387Y1818D01*
X1267Y1818D02*
X1384Y1818D01*
X270Y1817D02*
X386Y1817D01*
X1267Y1817D02*
X1384Y1817D01*
X271Y1816D02*
X386Y1816D01*
X1268Y1816D02*
X1383Y1816D01*
X271Y1815D02*
X385Y1815D01*
X1269Y1815D02*
X1383Y1815D01*
X272Y1814D02*
X385Y1814D01*
X1269Y1814D02*
X1382Y1814D01*
X272Y1813D02*
X384Y1813D01*
X1270Y1813D02*
X1382Y1813D01*
X273Y1812D02*
X383Y1812D01*
X1270Y1812D02*
X1381Y1812D01*
X274Y1811D02*
X383Y1811D01*
X1271Y1811D02*
X1380Y1811D01*
X274Y1810D02*
X382Y1810D01*
X1272Y1810D02*
X1379Y1810D01*
X275Y1809D02*
X381Y1809D01*
X1273Y1809D02*
X1379Y1809D01*
X276Y1808D02*
X380Y1808D01*
X1273Y1808D02*
X1378Y1808D01*
X277Y1807D02*
X379Y1807D01*
X1274Y1807D02*
X1377Y1807D01*
X278Y1806D02*
X378Y1806D01*
X1275Y1806D02*
X1376Y1806D01*
X279Y1805D02*
X377Y1805D01*
X1276Y1805D02*
X1375Y1805D01*
X280Y1804D02*
X376Y1804D01*
X1278Y1804D02*
X1374Y1804D01*
X281Y1803D02*
X375Y1803D01*
X1279Y1803D02*
X1373Y1803D01*
X283Y1802D02*
X374Y1802D01*
X1280Y1802D02*
X1371Y1802D01*
X284Y1801D02*
X372Y1801D01*
X1281Y1801D02*
X1370Y1801D01*
X286Y1800D02*
X371Y1800D01*
X1283Y1800D02*
X1368Y1800D01*
X287Y1799D02*
X369Y1799D01*
X1285Y1799D02*
X1366Y1799D01*
X289Y1798D02*
X367Y1798D01*
X1287Y1798D02*
X1364Y1798D01*
X292Y1797D02*
X364Y1797D01*
X1289Y1797D02*
X1362Y1797D01*
X295Y1796D02*
X361Y1796D01*
X1293Y1796D02*
X1359Y1796D01*
X302Y1767D02*
X354Y1767D01*
X1299Y1767D02*
X1352Y1767D01*
X295Y1766D02*
X361Y1766D01*
X1292Y1766D02*
X1359Y1766D01*
X292Y1765D02*
X365Y1765D01*
X1289Y1765D02*
X1362Y1765D01*
X289Y1764D02*
X367Y1764D01*
X1287Y1764D02*
X1365Y1764D01*
X287Y1763D02*
X369Y1763D01*
X1285Y1763D02*
X1367Y1763D01*
X285Y1762D02*
X371Y1762D01*
X1283Y1762D02*
X1368Y1762D01*
X284Y1761D02*
X372Y1761D01*
X1281Y1761D02*
X1370Y1761D01*
X282Y1760D02*
X374Y1760D01*
X1280Y1760D02*
X1371Y1760D01*
X281Y1759D02*
X375Y1759D01*
X1279Y1759D02*
X1373Y1759D01*
X280Y1758D02*
X376Y1758D01*
X1277Y1758D02*
X1374Y1758D01*
X279Y1757D02*
X378Y1757D01*
X1276Y1757D02*
X1375Y1757D01*
X278Y1756D02*
X379Y1756D01*
X1275Y1756D02*
X1376Y1756D01*
X277Y1755D02*
X380Y1755D01*
X1274Y1755D02*
X1377Y1755D01*
X276Y1754D02*
X380Y1754D01*
X1273Y1754D02*
X1378Y1754D01*
X275Y1753D02*
X381Y1753D01*
X1273Y1753D02*
X1379Y1753D01*
X274Y1752D02*
X382Y1752D01*
X1272Y1752D02*
X1380Y1752D01*
X274Y1751D02*
X383Y1751D01*
X1271Y1751D02*
X1380Y1751D01*
X273Y1750D02*
X384Y1750D01*
X1270Y1750D02*
X1381Y1750D01*
X272Y1749D02*
X384Y1749D01*
X1270Y1749D02*
X1382Y1749D01*
X272Y1748D02*
X385Y1748D01*
X1269Y1748D02*
X1382Y1748D01*
X271Y1747D02*
X385Y1747D01*
X1269Y1747D02*
X1383Y1747D01*
X270Y1746D02*
X386Y1746D01*
X1268Y1746D02*
X1383Y1746D01*
X270Y1745D02*
X386Y1745D01*
X1267Y1745D02*
X1384Y1745D01*
X270Y1744D02*
X387Y1744D01*
X1267Y1744D02*
X1384Y1744D01*
X269Y1743D02*
X387Y1743D01*
X1267Y1743D02*
X1385Y1743D01*
X269Y1742D02*
X388Y1742D01*
X1266Y1742D02*
X1385Y1742D01*
X268Y1741D02*
X388Y1741D01*
X1266Y1741D02*
X1386Y1741D01*
X268Y1740D02*
X388Y1740D01*
X1266Y1740D02*
X1386Y1740D01*
X268Y1739D02*
X389Y1739D01*
X1265Y1739D02*
X1386Y1739D01*
X268Y1738D02*
X389Y1738D01*
X1265Y1738D02*
X1386Y1738D01*
X267Y1737D02*
X389Y1737D01*
X1265Y1737D02*
X1387Y1737D01*
X267Y1736D02*
X324Y1736D01*
X333Y1736D02*
X389Y1736D01*
X1265Y1736D02*
X1320Y1736D01*
X1329Y1736D02*
X1387Y1736D01*
X267Y1735D02*
X323Y1735D01*
X333Y1735D02*
X389Y1735D01*
X1264Y1735D02*
X1320Y1735D01*
X1330Y1735D02*
X1387Y1735D01*
X267Y1734D02*
X322Y1734D01*
X334Y1734D02*
X389Y1734D01*
X1264Y1734D02*
X1319Y1734D01*
X1331Y1734D02*
X1387Y1734D01*
X267Y1733D02*
X322Y1733D01*
X335Y1733D02*
X390Y1733D01*
X1264Y1733D02*
X1319Y1733D01*
X1331Y1733D02*
X1387Y1733D01*
X267Y1732D02*
X321Y1732D01*
X335Y1732D02*
X390Y1732D01*
X1264Y1732D02*
X1318Y1732D01*
X1332Y1732D02*
X1387Y1732D01*
X267Y1731D02*
X321Y1731D01*
X335Y1731D02*
X390Y1731D01*
X1264Y1731D02*
X1318Y1731D01*
X1332Y1731D02*
X1387Y1731D01*
X267Y1730D02*
X321Y1730D01*
X335Y1730D02*
X390Y1730D01*
X1264Y1730D02*
X1318Y1730D01*
X1332Y1730D02*
X1387Y1730D01*
X267Y1729D02*
X322Y1729D01*
X335Y1729D02*
X390Y1729D01*
X1264Y1729D02*
X1318Y1729D01*
X1331Y1729D02*
X1387Y1729D01*
X267Y1728D02*
X322Y1728D01*
X334Y1728D02*
X389Y1728D01*
X1264Y1728D02*
X1319Y1728D01*
X1331Y1728D02*
X1387Y1728D01*
X267Y1727D02*
X323Y1727D01*
X333Y1727D02*
X389Y1727D01*
X1264Y1727D02*
X1320Y1727D01*
X1330Y1727D02*
X1387Y1727D01*
X267Y1726D02*
X324Y1726D01*
X333Y1726D02*
X389Y1726D01*
X1265Y1726D02*
X1320Y1726D01*
X1329Y1726D02*
X1387Y1726D01*
X267Y1725D02*
X327Y1725D01*
X330Y1725D02*
X389Y1725D01*
X1265Y1725D02*
X1324Y1725D01*
X1326Y1725D02*
X1387Y1725D01*
X268Y1724D02*
X389Y1724D01*
X1265Y1724D02*
X1386Y1724D01*
X268Y1723D02*
X389Y1723D01*
X1265Y1723D02*
X1386Y1723D01*
X268Y1722D02*
X388Y1722D01*
X1266Y1722D02*
X1386Y1722D01*
X268Y1721D02*
X388Y1721D01*
X1266Y1721D02*
X1385Y1721D01*
X269Y1720D02*
X388Y1720D01*
X1266Y1720D02*
X1385Y1720D01*
X269Y1719D02*
X387Y1719D01*
X1267Y1719D02*
X1385Y1719D01*
X270Y1718D02*
X387Y1718D01*
X1267Y1718D02*
X1384Y1718D01*
X270Y1717D02*
X386Y1717D01*
X1268Y1717D02*
X1384Y1717D01*
X271Y1716D02*
X386Y1716D01*
X1268Y1716D02*
X1383Y1716D01*
X271Y1715D02*
X385Y1715D01*
X1269Y1715D02*
X1383Y1715D01*
X272Y1714D02*
X385Y1714D01*
X1269Y1714D02*
X1382Y1714D01*
X272Y1713D02*
X384Y1713D01*
X1270Y1713D02*
X1382Y1713D01*
X273Y1712D02*
X383Y1712D01*
X1270Y1712D02*
X1381Y1712D01*
X274Y1711D02*
X383Y1711D01*
X1271Y1711D02*
X1380Y1711D01*
X274Y1710D02*
X382Y1710D01*
X1272Y1710D02*
X1380Y1710D01*
X275Y1709D02*
X381Y1709D01*
X1273Y1709D02*
X1379Y1709D01*
X276Y1708D02*
X380Y1708D01*
X1273Y1708D02*
X1378Y1708D01*
X277Y1707D02*
X379Y1707D01*
X1274Y1707D02*
X1377Y1707D01*
X278Y1706D02*
X378Y1706D01*
X1275Y1706D02*
X1376Y1706D01*
X279Y1705D02*
X377Y1705D01*
X1276Y1705D02*
X1375Y1705D01*
X280Y1704D02*
X376Y1704D01*
X1278Y1704D02*
X1374Y1704D01*
X281Y1703D02*
X375Y1703D01*
X1279Y1703D02*
X1373Y1703D01*
X283Y1702D02*
X374Y1702D01*
X1280Y1702D02*
X1371Y1702D01*
X284Y1701D02*
X372Y1701D01*
X1282Y1701D02*
X1370Y1701D01*
X286Y1700D02*
X371Y1700D01*
X1283Y1700D02*
X1368Y1700D01*
X287Y1699D02*
X369Y1699D01*
X1285Y1699D02*
X1366Y1699D01*
X289Y1698D02*
X367Y1698D01*
X1287Y1698D02*
X1364Y1698D01*
X292Y1697D02*
X364Y1697D01*
X1289Y1697D02*
X1362Y1697D01*
X295Y1696D02*
X361Y1696D01*
X1293Y1696D02*
X1359Y1696D01*
X301Y1667D02*
X355Y1667D01*
X1299Y1667D02*
X1352Y1667D01*
X295Y1666D02*
X362Y1666D01*
X1292Y1666D02*
X1359Y1666D01*
X292Y1665D02*
X365Y1665D01*
X1289Y1665D02*
X1362Y1665D01*
X289Y1664D02*
X367Y1664D01*
X1287Y1664D02*
X1365Y1664D01*
X287Y1663D02*
X369Y1663D01*
X1285Y1663D02*
X1367Y1663D01*
X285Y1662D02*
X371Y1662D01*
X1283Y1662D02*
X1368Y1662D01*
X284Y1661D02*
X372Y1661D01*
X1281Y1661D02*
X1370Y1661D01*
X282Y1660D02*
X374Y1660D01*
X1280Y1660D02*
X1371Y1660D01*
X281Y1659D02*
X375Y1659D01*
X1279Y1659D02*
X1373Y1659D01*
X280Y1658D02*
X376Y1658D01*
X1277Y1658D02*
X1374Y1658D01*
X279Y1657D02*
X378Y1657D01*
X1276Y1657D02*
X1375Y1657D01*
X278Y1656D02*
X379Y1656D01*
X1275Y1656D02*
X1376Y1656D01*
X277Y1655D02*
X380Y1655D01*
X1274Y1655D02*
X1377Y1655D01*
X276Y1654D02*
X380Y1654D01*
X1273Y1654D02*
X1378Y1654D01*
X275Y1653D02*
X381Y1653D01*
X1273Y1653D02*
X1379Y1653D01*
X274Y1652D02*
X382Y1652D01*
X1272Y1652D02*
X1380Y1652D01*
X274Y1651D02*
X383Y1651D01*
X1271Y1651D02*
X1380Y1651D01*
X273Y1650D02*
X384Y1650D01*
X1270Y1650D02*
X1381Y1650D01*
X272Y1649D02*
X384Y1649D01*
X1270Y1649D02*
X1382Y1649D01*
X272Y1648D02*
X385Y1648D01*
X1269Y1648D02*
X1382Y1648D01*
X271Y1647D02*
X385Y1647D01*
X1268Y1647D02*
X1383Y1647D01*
X270Y1646D02*
X386Y1646D01*
X1268Y1646D02*
X1383Y1646D01*
X270Y1645D02*
X386Y1645D01*
X1267Y1645D02*
X1384Y1645D01*
X270Y1644D02*
X387Y1644D01*
X1267Y1644D02*
X1384Y1644D01*
X269Y1643D02*
X387Y1643D01*
X1267Y1643D02*
X1385Y1643D01*
X269Y1642D02*
X388Y1642D01*
X1266Y1642D02*
X1385Y1642D01*
X268Y1641D02*
X388Y1641D01*
X1266Y1641D02*
X1385Y1641D01*
X268Y1640D02*
X388Y1640D01*
X1266Y1640D02*
X1386Y1640D01*
X268Y1639D02*
X389Y1639D01*
X1265Y1639D02*
X1386Y1639D01*
X268Y1638D02*
X389Y1638D01*
X1265Y1638D02*
X1386Y1638D01*
X267Y1637D02*
X389Y1637D01*
X1265Y1637D02*
X1387Y1637D01*
X267Y1636D02*
X324Y1636D01*
X333Y1636D02*
X389Y1636D01*
X1265Y1636D02*
X1320Y1636D01*
X1329Y1636D02*
X1387Y1636D01*
X267Y1635D02*
X323Y1635D01*
X333Y1635D02*
X389Y1635D01*
X1264Y1635D02*
X1320Y1635D01*
X1330Y1635D02*
X1387Y1635D01*
X267Y1634D02*
X322Y1634D01*
X334Y1634D02*
X389Y1634D01*
X1264Y1634D02*
X1319Y1634D01*
X1331Y1634D02*
X1387Y1634D01*
X267Y1633D02*
X322Y1633D01*
X335Y1633D02*
X390Y1633D01*
X1264Y1633D02*
X1318Y1633D01*
X1331Y1633D02*
X1387Y1633D01*
X267Y1632D02*
X321Y1632D01*
X335Y1632D02*
X390Y1632D01*
X1264Y1632D02*
X1318Y1632D01*
X1332Y1632D02*
X1387Y1632D01*
X267Y1631D02*
X321Y1631D01*
X335Y1631D02*
X390Y1631D01*
X1264Y1631D02*
X1318Y1631D01*
X1332Y1631D02*
X1387Y1631D01*
X267Y1630D02*
X321Y1630D01*
X335Y1630D02*
X390Y1630D01*
X1264Y1630D02*
X1318Y1630D01*
X1332Y1630D02*
X1387Y1630D01*
X267Y1629D02*
X322Y1629D01*
X335Y1629D02*
X390Y1629D01*
X1264Y1629D02*
X1318Y1629D01*
X1331Y1629D02*
X1387Y1629D01*
X267Y1628D02*
X322Y1628D01*
X334Y1628D02*
X389Y1628D01*
X1264Y1628D02*
X1319Y1628D01*
X1331Y1628D02*
X1387Y1628D01*
X267Y1627D02*
X323Y1627D01*
X333Y1627D02*
X389Y1627D01*
X1264Y1627D02*
X1320Y1627D01*
X1330Y1627D02*
X1387Y1627D01*
X267Y1626D02*
X324Y1626D01*
X333Y1626D02*
X389Y1626D01*
X1265Y1626D02*
X1320Y1626D01*
X1329Y1626D02*
X1387Y1626D01*
X267Y1625D02*
X389Y1625D01*
X1265Y1625D02*
X1386Y1625D01*
X268Y1624D02*
X389Y1624D01*
X1265Y1624D02*
X1386Y1624D01*
X268Y1623D02*
X389Y1623D01*
X1265Y1623D02*
X1386Y1623D01*
X268Y1622D02*
X388Y1622D01*
X1266Y1622D02*
X1386Y1622D01*
X268Y1621D02*
X388Y1621D01*
X1266Y1621D02*
X1385Y1621D01*
X269Y1620D02*
X388Y1620D01*
X1266Y1620D02*
X1385Y1620D01*
X269Y1619D02*
X387Y1619D01*
X1267Y1619D02*
X1385Y1619D01*
X270Y1618D02*
X387Y1618D01*
X1267Y1618D02*
X1384Y1618D01*
X270Y1617D02*
X386Y1617D01*
X1268Y1617D02*
X1384Y1617D01*
X271Y1616D02*
X386Y1616D01*
X1268Y1616D02*
X1383Y1616D01*
X271Y1615D02*
X385Y1615D01*
X1269Y1615D02*
X1383Y1615D01*
X272Y1614D02*
X385Y1614D01*
X1269Y1614D02*
X1382Y1614D01*
X272Y1613D02*
X384Y1613D01*
X1270Y1613D02*
X1382Y1613D01*
X273Y1612D02*
X383Y1612D01*
X1270Y1612D02*
X1381Y1612D01*
X274Y1611D02*
X383Y1611D01*
X1271Y1611D02*
X1380Y1611D01*
X274Y1610D02*
X382Y1610D01*
X1272Y1610D02*
X1379Y1610D01*
X275Y1609D02*
X381Y1609D01*
X1273Y1609D02*
X1379Y1609D01*
X276Y1608D02*
X380Y1608D01*
X1273Y1608D02*
X1378Y1608D01*
X277Y1607D02*
X379Y1607D01*
X1274Y1607D02*
X1377Y1607D01*
X278Y1606D02*
X378Y1606D01*
X1275Y1606D02*
X1376Y1606D01*
X279Y1605D02*
X377Y1605D01*
X1276Y1605D02*
X1375Y1605D01*
X280Y1604D02*
X376Y1604D01*
X1278Y1604D02*
X1374Y1604D01*
X281Y1603D02*
X375Y1603D01*
X1279Y1603D02*
X1373Y1603D01*
X283Y1602D02*
X374Y1602D01*
X1280Y1602D02*
X1371Y1602D01*
X284Y1601D02*
X372Y1601D01*
X1282Y1601D02*
X1370Y1601D01*
X286Y1600D02*
X371Y1600D01*
X1283Y1600D02*
X1368Y1600D01*
X287Y1599D02*
X369Y1599D01*
X1285Y1599D02*
X1366Y1599D01*
X289Y1598D02*
X367Y1598D01*
X1287Y1598D02*
X1364Y1598D01*
X292Y1597D02*
X364Y1597D01*
X1289Y1597D02*
X1362Y1597D01*
X295Y1596D02*
X361Y1596D01*
X1293Y1596D02*
X1359Y1596D01*
X301Y1567D02*
X355Y1567D01*
X1299Y1567D02*
X1353Y1567D01*
X295Y1566D02*
X362Y1566D01*
X1292Y1566D02*
X1359Y1566D01*
X292Y1565D02*
X365Y1565D01*
X1289Y1565D02*
X1362Y1565D01*
X289Y1564D02*
X367Y1564D01*
X1287Y1564D02*
X1365Y1564D01*
X287Y1563D02*
X369Y1563D01*
X1285Y1563D02*
X1367Y1563D01*
X285Y1562D02*
X371Y1562D01*
X1283Y1562D02*
X1368Y1562D01*
X284Y1561D02*
X372Y1561D01*
X1281Y1561D02*
X1370Y1561D01*
X282Y1560D02*
X374Y1560D01*
X1280Y1560D02*
X1371Y1560D01*
X281Y1559D02*
X375Y1559D01*
X1279Y1559D02*
X1373Y1559D01*
X280Y1558D02*
X376Y1558D01*
X1277Y1558D02*
X1374Y1558D01*
X279Y1557D02*
X378Y1557D01*
X1276Y1557D02*
X1375Y1557D01*
X278Y1556D02*
X379Y1556D01*
X1275Y1556D02*
X1376Y1556D01*
X277Y1555D02*
X380Y1555D01*
X1274Y1555D02*
X1377Y1555D01*
X276Y1554D02*
X380Y1554D01*
X1273Y1554D02*
X1378Y1554D01*
X275Y1553D02*
X381Y1553D01*
X1273Y1553D02*
X1379Y1553D01*
X274Y1552D02*
X382Y1552D01*
X1272Y1552D02*
X1380Y1552D01*
X274Y1551D02*
X383Y1551D01*
X1271Y1551D02*
X1380Y1551D01*
X273Y1550D02*
X384Y1550D01*
X1270Y1550D02*
X1381Y1550D01*
X272Y1549D02*
X384Y1549D01*
X1270Y1549D02*
X1382Y1549D01*
X272Y1548D02*
X385Y1548D01*
X1269Y1548D02*
X1382Y1548D01*
X271Y1547D02*
X385Y1547D01*
X1268Y1547D02*
X1383Y1547D01*
X270Y1546D02*
X386Y1546D01*
X1268Y1546D02*
X1383Y1546D01*
X270Y1545D02*
X386Y1545D01*
X1267Y1545D02*
X1384Y1545D01*
X270Y1544D02*
X387Y1544D01*
X1267Y1544D02*
X1384Y1544D01*
X269Y1543D02*
X387Y1543D01*
X1267Y1543D02*
X1385Y1543D01*
X269Y1542D02*
X388Y1542D01*
X1266Y1542D02*
X1385Y1542D01*
X268Y1541D02*
X388Y1541D01*
X1266Y1541D02*
X1386Y1541D01*
X268Y1540D02*
X388Y1540D01*
X1266Y1540D02*
X1386Y1540D01*
X268Y1539D02*
X389Y1539D01*
X1265Y1539D02*
X1386Y1539D01*
X268Y1538D02*
X389Y1538D01*
X1265Y1538D02*
X1386Y1538D01*
X267Y1537D02*
X389Y1537D01*
X1265Y1537D02*
X1387Y1537D01*
X267Y1536D02*
X324Y1536D01*
X333Y1536D02*
X389Y1536D01*
X1265Y1536D02*
X1320Y1536D01*
X1330Y1536D02*
X1387Y1536D01*
X267Y1535D02*
X323Y1535D01*
X334Y1535D02*
X389Y1535D01*
X1264Y1535D02*
X1320Y1535D01*
X1330Y1535D02*
X1387Y1535D01*
X267Y1534D02*
X322Y1534D01*
X334Y1534D02*
X389Y1534D01*
X1264Y1534D02*
X1319Y1534D01*
X1331Y1534D02*
X1387Y1534D01*
X267Y1533D02*
X322Y1533D01*
X335Y1533D02*
X390Y1533D01*
X1264Y1533D02*
X1318Y1533D01*
X1331Y1533D02*
X1387Y1533D01*
X267Y1532D02*
X321Y1532D01*
X335Y1532D02*
X390Y1532D01*
X1264Y1532D02*
X1318Y1532D01*
X1332Y1532D02*
X1387Y1532D01*
X267Y1531D02*
X321Y1531D01*
X335Y1531D02*
X390Y1531D01*
X1264Y1531D02*
X1318Y1531D01*
X1332Y1531D02*
X1387Y1531D01*
X267Y1530D02*
X321Y1530D01*
X335Y1530D02*
X390Y1530D01*
X1264Y1530D02*
X1318Y1530D01*
X1332Y1530D02*
X1387Y1530D01*
X267Y1529D02*
X322Y1529D01*
X335Y1529D02*
X390Y1529D01*
X1264Y1529D02*
X1318Y1529D01*
X1331Y1529D02*
X1387Y1529D01*
X267Y1528D02*
X322Y1528D01*
X334Y1528D02*
X389Y1528D01*
X1264Y1528D02*
X1319Y1528D01*
X1331Y1528D02*
X1387Y1528D01*
X267Y1527D02*
X323Y1527D01*
X334Y1527D02*
X389Y1527D01*
X1264Y1527D02*
X1320Y1527D01*
X1330Y1527D02*
X1387Y1527D01*
X267Y1526D02*
X324Y1526D01*
X333Y1526D02*
X389Y1526D01*
X1265Y1526D02*
X1320Y1526D01*
X1330Y1526D02*
X1387Y1526D01*
X267Y1525D02*
X389Y1525D01*
X1265Y1525D02*
X1387Y1525D01*
X268Y1524D02*
X389Y1524D01*
X1265Y1524D02*
X1386Y1524D01*
X268Y1523D02*
X389Y1523D01*
X1265Y1523D02*
X1386Y1523D01*
X268Y1522D02*
X388Y1522D01*
X1266Y1522D02*
X1386Y1522D01*
X268Y1521D02*
X388Y1521D01*
X1266Y1521D02*
X1385Y1521D01*
X269Y1520D02*
X388Y1520D01*
X1266Y1520D02*
X1385Y1520D01*
X269Y1519D02*
X387Y1519D01*
X1267Y1519D02*
X1385Y1519D01*
X270Y1518D02*
X387Y1518D01*
X1267Y1518D02*
X1384Y1518D01*
X270Y1517D02*
X386Y1517D01*
X1268Y1517D02*
X1384Y1517D01*
X271Y1516D02*
X386Y1516D01*
X1268Y1516D02*
X1383Y1516D01*
X271Y1515D02*
X385Y1515D01*
X1269Y1515D02*
X1383Y1515D01*
X272Y1514D02*
X385Y1514D01*
X1269Y1514D02*
X1382Y1514D01*
X272Y1513D02*
X384Y1513D01*
X1270Y1513D02*
X1382Y1513D01*
X273Y1512D02*
X383Y1512D01*
X1270Y1512D02*
X1381Y1512D01*
X274Y1511D02*
X383Y1511D01*
X1271Y1511D02*
X1380Y1511D01*
X274Y1510D02*
X382Y1510D01*
X1272Y1510D02*
X1380Y1510D01*
X275Y1509D02*
X381Y1509D01*
X1273Y1509D02*
X1379Y1509D01*
X276Y1508D02*
X380Y1508D01*
X1274Y1508D02*
X1378Y1508D01*
X277Y1507D02*
X379Y1507D01*
X1274Y1507D02*
X1377Y1507D01*
X278Y1506D02*
X378Y1506D01*
X1275Y1506D02*
X1376Y1506D01*
X279Y1505D02*
X377Y1505D01*
X1276Y1505D02*
X1375Y1505D01*
X280Y1504D02*
X376Y1504D01*
X1278Y1504D02*
X1374Y1504D01*
X281Y1503D02*
X375Y1503D01*
X1279Y1503D02*
X1373Y1503D01*
X283Y1502D02*
X374Y1502D01*
X1280Y1502D02*
X1371Y1502D01*
X284Y1501D02*
X372Y1501D01*
X1282Y1501D02*
X1370Y1501D01*
X286Y1500D02*
X371Y1500D01*
X1283Y1500D02*
X1368Y1500D01*
X287Y1499D02*
X369Y1499D01*
X1285Y1499D02*
X1366Y1499D01*
X290Y1498D02*
X367Y1498D01*
X1287Y1498D02*
X1364Y1498D01*
X292Y1497D02*
X364Y1497D01*
X1290Y1497D02*
X1362Y1497D01*
X295Y1496D02*
X361Y1496D01*
X1293Y1496D02*
X1359Y1496D01*
X300Y1467D02*
X354Y1467D01*
X1298Y1467D02*
X1353Y1467D01*
X294Y1466D02*
X361Y1466D01*
X1292Y1466D02*
X1359Y1466D01*
X291Y1465D02*
X364Y1465D01*
X1289Y1465D02*
X1362Y1465D01*
X288Y1464D02*
X366Y1464D01*
X1287Y1464D02*
X1365Y1464D01*
X286Y1463D02*
X368Y1463D01*
X1285Y1463D02*
X1367Y1463D01*
X284Y1462D02*
X370Y1462D01*
X1283Y1462D02*
X1368Y1462D01*
X283Y1461D02*
X371Y1461D01*
X1281Y1461D02*
X1370Y1461D01*
X281Y1460D02*
X373Y1460D01*
X1280Y1460D02*
X1371Y1460D01*
X280Y1459D02*
X374Y1459D01*
X1279Y1459D02*
X1373Y1459D01*
X279Y1458D02*
X375Y1458D01*
X1277Y1458D02*
X1374Y1458D01*
X278Y1457D02*
X377Y1457D01*
X1276Y1457D02*
X1375Y1457D01*
X277Y1456D02*
X378Y1456D01*
X1275Y1456D02*
X1376Y1456D01*
X276Y1455D02*
X379Y1455D01*
X1274Y1455D02*
X1377Y1455D01*
X275Y1454D02*
X379Y1454D01*
X1273Y1454D02*
X1378Y1454D01*
X274Y1453D02*
X380Y1453D01*
X1273Y1453D02*
X1379Y1453D01*
X273Y1452D02*
X381Y1452D01*
X1272Y1452D02*
X1380Y1452D01*
X273Y1451D02*
X382Y1451D01*
X1271Y1451D02*
X1380Y1451D01*
X272Y1450D02*
X383Y1450D01*
X1270Y1450D02*
X1381Y1450D01*
X271Y1449D02*
X383Y1449D01*
X1270Y1449D02*
X1382Y1449D01*
X271Y1448D02*
X384Y1448D01*
X1269Y1448D02*
X1382Y1448D01*
X270Y1447D02*
X384Y1447D01*
X1268Y1447D02*
X1383Y1447D01*
X269Y1446D02*
X385Y1446D01*
X1268Y1446D02*
X1383Y1446D01*
X269Y1445D02*
X385Y1445D01*
X1267Y1445D02*
X1384Y1445D01*
X269Y1444D02*
X386Y1444D01*
X1267Y1444D02*
X1384Y1444D01*
X268Y1443D02*
X386Y1443D01*
X1267Y1443D02*
X1385Y1443D01*
X268Y1442D02*
X387Y1442D01*
X1266Y1442D02*
X1385Y1442D01*
X267Y1441D02*
X387Y1441D01*
X1266Y1441D02*
X1385Y1441D01*
X267Y1440D02*
X387Y1440D01*
X1266Y1440D02*
X1386Y1440D01*
X267Y1439D02*
X388Y1439D01*
X1265Y1439D02*
X1386Y1439D01*
X267Y1438D02*
X388Y1438D01*
X1265Y1438D02*
X1386Y1438D01*
X266Y1437D02*
X388Y1437D01*
X1265Y1437D02*
X1387Y1437D01*
X266Y1436D02*
X322Y1436D01*
X332Y1436D02*
X388Y1436D01*
X1265Y1436D02*
X1320Y1436D01*
X1330Y1436D02*
X1387Y1436D01*
X266Y1435D02*
X321Y1435D01*
X333Y1435D02*
X388Y1435D01*
X1264Y1435D02*
X1319Y1435D01*
X1331Y1435D02*
X1387Y1435D01*
X266Y1434D02*
X321Y1434D01*
X333Y1434D02*
X389Y1434D01*
X1264Y1434D02*
X1319Y1434D01*
X1331Y1434D02*
X1387Y1434D01*
X266Y1433D02*
X321Y1433D01*
X334Y1433D02*
X389Y1433D01*
X1264Y1433D02*
X1319Y1433D01*
X1331Y1433D02*
X1387Y1433D01*
X266Y1432D02*
X321Y1432D01*
X334Y1432D02*
X389Y1432D01*
X1264Y1432D02*
X1318Y1432D01*
X1331Y1432D02*
X1387Y1432D01*
X266Y1431D02*
X321Y1431D01*
X334Y1431D02*
X389Y1431D01*
X1264Y1431D02*
X1318Y1431D01*
X1331Y1431D02*
X1387Y1431D01*
X266Y1430D02*
X321Y1430D01*
X334Y1430D02*
X389Y1430D01*
X1264Y1430D02*
X1318Y1430D01*
X1331Y1430D02*
X1387Y1430D01*
X266Y1429D02*
X321Y1429D01*
X334Y1429D02*
X389Y1429D01*
X1264Y1429D02*
X1319Y1429D01*
X1331Y1429D02*
X1387Y1429D01*
X266Y1428D02*
X321Y1428D01*
X333Y1428D02*
X388Y1428D01*
X1264Y1428D02*
X1319Y1428D01*
X1331Y1428D02*
X1387Y1428D01*
X266Y1427D02*
X321Y1427D01*
X333Y1427D02*
X388Y1427D01*
X1264Y1427D02*
X1319Y1427D01*
X1331Y1427D02*
X1387Y1427D01*
X266Y1426D02*
X322Y1426D01*
X332Y1426D02*
X388Y1426D01*
X1265Y1426D02*
X1320Y1426D01*
X1330Y1426D02*
X1387Y1426D01*
X266Y1425D02*
X388Y1425D01*
X1265Y1425D02*
X1386Y1425D01*
X267Y1424D02*
X388Y1424D01*
X1265Y1424D02*
X1386Y1424D01*
X267Y1423D02*
X388Y1423D01*
X1265Y1423D02*
X1386Y1423D01*
X267Y1422D02*
X387Y1422D01*
X1266Y1422D02*
X1386Y1422D01*
X267Y1421D02*
X387Y1421D01*
X1266Y1421D02*
X1385Y1421D01*
X268Y1420D02*
X387Y1420D01*
X1266Y1420D02*
X1385Y1420D01*
X268Y1419D02*
X386Y1419D01*
X1267Y1419D02*
X1385Y1419D01*
X269Y1418D02*
X386Y1418D01*
X1267Y1418D02*
X1384Y1418D01*
X269Y1417D02*
X385Y1417D01*
X1268Y1417D02*
X1384Y1417D01*
X270Y1416D02*
X385Y1416D01*
X1268Y1416D02*
X1383Y1416D01*
X270Y1415D02*
X384Y1415D01*
X1269Y1415D02*
X1383Y1415D01*
X271Y1414D02*
X384Y1414D01*
X1269Y1414D02*
X1382Y1414D01*
X271Y1413D02*
X383Y1413D01*
X1270Y1413D02*
X1382Y1413D01*
X272Y1412D02*
X382Y1412D01*
X1270Y1412D02*
X1381Y1412D01*
X273Y1411D02*
X382Y1411D01*
X1271Y1411D02*
X1380Y1411D01*
X273Y1410D02*
X381Y1410D01*
X1272Y1410D02*
X1379Y1410D01*
X274Y1409D02*
X380Y1409D01*
X1273Y1409D02*
X1379Y1409D01*
X275Y1408D02*
X379Y1408D01*
X1274Y1408D02*
X1378Y1408D01*
X276Y1407D02*
X378Y1407D01*
X1274Y1407D02*
X1377Y1407D01*
X277Y1406D02*
X377Y1406D01*
X1275Y1406D02*
X1376Y1406D01*
X278Y1405D02*
X376Y1405D01*
X1276Y1405D02*
X1375Y1405D01*
X279Y1404D02*
X375Y1404D01*
X1278Y1404D02*
X1374Y1404D01*
X280Y1403D02*
X374Y1403D01*
X1279Y1403D02*
X1373Y1403D01*
X282Y1402D02*
X373Y1402D01*
X1280Y1402D02*
X1371Y1402D01*
X283Y1401D02*
X371Y1401D01*
X1282Y1401D02*
X1370Y1401D01*
X285Y1400D02*
X370Y1400D01*
X1283Y1400D02*
X1368Y1400D01*
X286Y1399D02*
X368Y1399D01*
X1285Y1399D02*
X1366Y1399D01*
X288Y1398D02*
X366Y1398D01*
X1287Y1398D02*
X1364Y1398D01*
X291Y1397D02*
X363Y1397D01*
X1289Y1397D02*
X1362Y1397D01*
X294Y1396D02*
X360Y1396D01*
X1293Y1396D02*
X1359Y1396D01*
X301Y1367D02*
X355Y1367D01*
X1298Y1367D02*
X1353Y1367D01*
X295Y1366D02*
X362Y1366D01*
X1292Y1366D02*
X1359Y1366D01*
X292Y1365D02*
X365Y1365D01*
X1289Y1365D02*
X1362Y1365D01*
X289Y1364D02*
X367Y1364D01*
X1287Y1364D02*
X1365Y1364D01*
X287Y1363D02*
X369Y1363D01*
X1285Y1363D02*
X1367Y1363D01*
X285Y1362D02*
X371Y1362D01*
X1283Y1362D02*
X1368Y1362D01*
X284Y1361D02*
X373Y1361D01*
X1281Y1361D02*
X1370Y1361D01*
X282Y1360D02*
X374Y1360D01*
X1280Y1360D02*
X1371Y1360D01*
X281Y1359D02*
X375Y1359D01*
X1279Y1359D02*
X1373Y1359D01*
X280Y1358D02*
X376Y1358D01*
X1277Y1358D02*
X1374Y1358D01*
X279Y1357D02*
X378Y1357D01*
X1276Y1357D02*
X1375Y1357D01*
X278Y1356D02*
X379Y1356D01*
X1275Y1356D02*
X1376Y1356D01*
X277Y1355D02*
X380Y1355D01*
X1274Y1355D02*
X1377Y1355D01*
X276Y1354D02*
X380Y1354D01*
X1273Y1354D02*
X1378Y1354D01*
X275Y1353D02*
X381Y1353D01*
X1273Y1353D02*
X1379Y1353D01*
X274Y1352D02*
X382Y1352D01*
X1272Y1352D02*
X1380Y1352D01*
X274Y1351D02*
X383Y1351D01*
X1271Y1351D02*
X1380Y1351D01*
X273Y1350D02*
X384Y1350D01*
X1270Y1350D02*
X1381Y1350D01*
X272Y1349D02*
X384Y1349D01*
X1270Y1349D02*
X1382Y1349D01*
X272Y1348D02*
X385Y1348D01*
X1269Y1348D02*
X1382Y1348D01*
X271Y1347D02*
X385Y1347D01*
X1268Y1347D02*
X1383Y1347D01*
X270Y1346D02*
X386Y1346D01*
X1268Y1346D02*
X1383Y1346D01*
X270Y1345D02*
X386Y1345D01*
X1267Y1345D02*
X1384Y1345D01*
X270Y1344D02*
X387Y1344D01*
X1267Y1344D02*
X1384Y1344D01*
X269Y1343D02*
X387Y1343D01*
X1267Y1343D02*
X1385Y1343D01*
X269Y1342D02*
X388Y1342D01*
X1266Y1342D02*
X1385Y1342D01*
X268Y1341D02*
X388Y1341D01*
X1266Y1341D02*
X1385Y1341D01*
X268Y1340D02*
X388Y1340D01*
X1266Y1340D02*
X1386Y1340D01*
X268Y1339D02*
X389Y1339D01*
X1265Y1339D02*
X1386Y1339D01*
X268Y1338D02*
X389Y1338D01*
X1265Y1338D02*
X1386Y1338D01*
X267Y1337D02*
X327Y1337D01*
X329Y1337D02*
X389Y1337D01*
X1265Y1337D02*
X1324Y1337D01*
X1326Y1337D02*
X1387Y1337D01*
X267Y1336D02*
X323Y1336D01*
X333Y1336D02*
X389Y1336D01*
X1265Y1336D02*
X1320Y1336D01*
X1330Y1336D02*
X1387Y1336D01*
X267Y1335D02*
X322Y1335D01*
X334Y1335D02*
X389Y1335D01*
X1264Y1335D02*
X1319Y1335D01*
X1331Y1335D02*
X1387Y1335D01*
X267Y1334D02*
X322Y1334D01*
X334Y1334D02*
X389Y1334D01*
X1264Y1334D02*
X1319Y1334D01*
X1331Y1334D02*
X1387Y1334D01*
X267Y1333D02*
X322Y1333D01*
X335Y1333D02*
X390Y1333D01*
X1264Y1333D02*
X1319Y1333D01*
X1331Y1333D02*
X1387Y1333D01*
X267Y1332D02*
X322Y1332D01*
X335Y1332D02*
X390Y1332D01*
X1264Y1332D02*
X1318Y1332D01*
X1331Y1332D02*
X1387Y1332D01*
X267Y1331D02*
X322Y1331D01*
X335Y1331D02*
X390Y1331D01*
X1264Y1331D02*
X1318Y1331D01*
X1331Y1331D02*
X1387Y1331D01*
X267Y1330D02*
X322Y1330D01*
X335Y1330D02*
X390Y1330D01*
X1264Y1330D02*
X1318Y1330D01*
X1331Y1330D02*
X1387Y1330D01*
X267Y1329D02*
X322Y1329D01*
X335Y1329D02*
X390Y1329D01*
X1264Y1329D02*
X1319Y1329D01*
X1331Y1329D02*
X1387Y1329D01*
X267Y1328D02*
X322Y1328D01*
X334Y1328D02*
X389Y1328D01*
X1264Y1328D02*
X1319Y1328D01*
X1331Y1328D02*
X1387Y1328D01*
X267Y1327D02*
X322Y1327D01*
X334Y1327D02*
X389Y1327D01*
X1264Y1327D02*
X1319Y1327D01*
X1331Y1327D02*
X1387Y1327D01*
X267Y1326D02*
X323Y1326D01*
X333Y1326D02*
X389Y1326D01*
X1265Y1326D02*
X1320Y1326D01*
X1330Y1326D02*
X1387Y1326D01*
X267Y1325D02*
X389Y1325D01*
X1265Y1325D02*
X1386Y1325D01*
X268Y1324D02*
X389Y1324D01*
X1265Y1324D02*
X1386Y1324D01*
X268Y1323D02*
X389Y1323D01*
X1265Y1323D02*
X1386Y1323D01*
X268Y1322D02*
X388Y1322D01*
X1266Y1322D02*
X1386Y1322D01*
X268Y1321D02*
X388Y1321D01*
X1266Y1321D02*
X1385Y1321D01*
X269Y1320D02*
X388Y1320D01*
X1266Y1320D02*
X1385Y1320D01*
X269Y1319D02*
X387Y1319D01*
X1267Y1319D02*
X1385Y1319D01*
X270Y1318D02*
X387Y1318D01*
X1267Y1318D02*
X1384Y1318D01*
X270Y1317D02*
X386Y1317D01*
X1268Y1317D02*
X1384Y1317D01*
X271Y1316D02*
X386Y1316D01*
X1268Y1316D02*
X1383Y1316D01*
X271Y1315D02*
X385Y1315D01*
X1269Y1315D02*
X1383Y1315D01*
X272Y1314D02*
X385Y1314D01*
X1269Y1314D02*
X1382Y1314D01*
X272Y1313D02*
X384Y1313D01*
X1270Y1313D02*
X1382Y1313D01*
X273Y1312D02*
X383Y1312D01*
X1270Y1312D02*
X1381Y1312D01*
X274Y1311D02*
X383Y1311D01*
X1271Y1311D02*
X1380Y1311D01*
X274Y1310D02*
X382Y1310D01*
X1272Y1310D02*
X1379Y1310D01*
X275Y1309D02*
X381Y1309D01*
X1273Y1309D02*
X1379Y1309D01*
X276Y1308D02*
X380Y1308D01*
X1274Y1308D02*
X1378Y1308D01*
X277Y1307D02*
X379Y1307D01*
X1274Y1307D02*
X1377Y1307D01*
X278Y1306D02*
X378Y1306D01*
X1275Y1306D02*
X1376Y1306D01*
X279Y1305D02*
X377Y1305D01*
X1276Y1305D02*
X1375Y1305D01*
X280Y1304D02*
X376Y1304D01*
X1278Y1304D02*
X1374Y1304D01*
X281Y1303D02*
X375Y1303D01*
X1279Y1303D02*
X1373Y1303D01*
X283Y1302D02*
X374Y1302D01*
X1280Y1302D02*
X1371Y1302D01*
X284Y1301D02*
X372Y1301D01*
X1282Y1301D02*
X1370Y1301D01*
X286Y1300D02*
X371Y1300D01*
X1283Y1300D02*
X1368Y1300D01*
X287Y1299D02*
X369Y1299D01*
X1285Y1299D02*
X1366Y1299D01*
X290Y1298D02*
X367Y1298D01*
X1287Y1298D02*
X1364Y1298D01*
X292Y1297D02*
X364Y1297D01*
X1290Y1297D02*
X1362Y1297D01*
X295Y1296D02*
X361Y1296D01*
X1293Y1296D02*
X1358Y1296D01*
X371Y1290D02*
X371Y1290D01*
X371Y1289D02*
X371Y1289D01*
X371Y1288D02*
X371Y1288D01*
X371Y1287D02*
X372Y1287D01*
X371Y1286D02*
X372Y1286D01*
X371Y1285D02*
X372Y1285D01*
X371Y1284D02*
X373Y1284D01*
X371Y1283D02*
X373Y1283D01*
X371Y1282D02*
X373Y1282D01*
X371Y1281D02*
X374Y1281D01*
X371Y1280D02*
X374Y1280D01*
X371Y1279D02*
X374Y1279D01*
X371Y1278D02*
X375Y1278D01*
X371Y1277D02*
X375Y1277D01*
X371Y1276D02*
X375Y1276D01*
X371Y1275D02*
X376Y1275D01*
X371Y1274D02*
X376Y1274D01*
X371Y1273D02*
X376Y1273D01*
X371Y1272D02*
X377Y1272D01*
X371Y1271D02*
X377Y1271D01*
X371Y1270D02*
X377Y1270D01*
X371Y1269D02*
X378Y1269D01*
X371Y1268D02*
X378Y1268D01*
X301Y1267D02*
X356Y1267D01*
X371Y1267D02*
X378Y1267D01*
X1298Y1267D02*
X1353Y1267D01*
X295Y1266D02*
X362Y1266D01*
X371Y1266D02*
X379Y1266D01*
X1292Y1266D02*
X1359Y1266D01*
X292Y1265D02*
X365Y1265D01*
X371Y1265D02*
X379Y1265D01*
X1289Y1265D02*
X1362Y1265D01*
X289Y1264D02*
X367Y1264D01*
X371Y1264D02*
X379Y1264D01*
X1287Y1264D02*
X1365Y1264D01*
X287Y1263D02*
X380Y1263D01*
X1285Y1263D02*
X1367Y1263D01*
X285Y1262D02*
X380Y1262D01*
X1283Y1262D02*
X1368Y1262D01*
X284Y1261D02*
X380Y1261D01*
X1281Y1261D02*
X1370Y1261D01*
X282Y1260D02*
X381Y1260D01*
X1280Y1260D02*
X1371Y1260D01*
X281Y1259D02*
X381Y1259D01*
X1279Y1259D02*
X1373Y1259D01*
X280Y1258D02*
X381Y1258D01*
X1277Y1258D02*
X1374Y1258D01*
X279Y1257D02*
X382Y1257D01*
X1276Y1257D02*
X1375Y1257D01*
X278Y1256D02*
X382Y1256D01*
X1275Y1256D02*
X1376Y1256D01*
X277Y1255D02*
X382Y1255D01*
X1274Y1255D02*
X1377Y1255D01*
X276Y1254D02*
X383Y1254D01*
X1273Y1254D02*
X1378Y1254D01*
X275Y1253D02*
X383Y1253D01*
X1273Y1253D02*
X1379Y1253D01*
X274Y1252D02*
X383Y1252D01*
X1272Y1252D02*
X1380Y1252D01*
X274Y1251D02*
X384Y1251D01*
X1271Y1251D02*
X1380Y1251D01*
X273Y1250D02*
X384Y1250D01*
X1270Y1250D02*
X1381Y1250D01*
X272Y1249D02*
X384Y1249D01*
X1270Y1249D02*
X1382Y1249D01*
X272Y1248D02*
X385Y1248D01*
X1269Y1248D02*
X1382Y1248D01*
X271Y1247D02*
X385Y1247D01*
X1268Y1247D02*
X1383Y1247D01*
X270Y1246D02*
X386Y1246D01*
X1268Y1246D02*
X1383Y1246D01*
X270Y1245D02*
X386Y1245D01*
X1267Y1245D02*
X1384Y1245D01*
X270Y1244D02*
X387Y1244D01*
X1267Y1244D02*
X1384Y1244D01*
X269Y1243D02*
X387Y1243D01*
X1267Y1243D02*
X1385Y1243D01*
X269Y1242D02*
X388Y1242D01*
X1266Y1242D02*
X1385Y1242D01*
X268Y1241D02*
X388Y1241D01*
X1266Y1241D02*
X1385Y1241D01*
X268Y1240D02*
X388Y1240D01*
X1266Y1240D02*
X1386Y1240D01*
X268Y1239D02*
X389Y1239D01*
X1265Y1239D02*
X1386Y1239D01*
X268Y1238D02*
X389Y1238D01*
X1265Y1238D02*
X1386Y1238D01*
X267Y1237D02*
X327Y1237D01*
X329Y1237D02*
X389Y1237D01*
X1265Y1237D02*
X1324Y1237D01*
X1326Y1237D02*
X1387Y1237D01*
X267Y1236D02*
X323Y1236D01*
X333Y1236D02*
X389Y1236D01*
X1265Y1236D02*
X1320Y1236D01*
X1330Y1236D02*
X1387Y1236D01*
X267Y1235D02*
X322Y1235D01*
X334Y1235D02*
X389Y1235D01*
X1264Y1235D02*
X1319Y1235D01*
X1331Y1235D02*
X1387Y1235D01*
X267Y1234D02*
X322Y1234D01*
X334Y1234D02*
X390Y1234D01*
X1264Y1234D02*
X1319Y1234D01*
X1331Y1234D02*
X1387Y1234D01*
X267Y1233D02*
X322Y1233D01*
X335Y1233D02*
X390Y1233D01*
X1264Y1233D02*
X1319Y1233D01*
X1331Y1233D02*
X1387Y1233D01*
X267Y1232D02*
X322Y1232D01*
X335Y1232D02*
X390Y1232D01*
X1264Y1232D02*
X1318Y1232D01*
X1331Y1232D02*
X1387Y1232D01*
X267Y1231D02*
X322Y1231D01*
X335Y1231D02*
X390Y1231D01*
X1264Y1231D02*
X1318Y1231D01*
X1331Y1231D02*
X1387Y1231D01*
X267Y1230D02*
X322Y1230D01*
X335Y1230D02*
X390Y1230D01*
X1264Y1230D02*
X1318Y1230D01*
X1331Y1230D02*
X1387Y1230D01*
X267Y1229D02*
X322Y1229D01*
X335Y1229D02*
X390Y1229D01*
X1264Y1229D02*
X1319Y1229D01*
X1331Y1229D02*
X1387Y1229D01*
X267Y1228D02*
X322Y1228D01*
X334Y1228D02*
X390Y1228D01*
X1264Y1228D02*
X1319Y1228D01*
X1331Y1228D02*
X1387Y1228D01*
X267Y1227D02*
X322Y1227D01*
X334Y1227D02*
X390Y1227D01*
X1264Y1227D02*
X1319Y1227D01*
X1331Y1227D02*
X1387Y1227D01*
X267Y1226D02*
X323Y1226D01*
X333Y1226D02*
X390Y1226D01*
X1265Y1226D02*
X1320Y1226D01*
X1330Y1226D02*
X1387Y1226D01*
X267Y1225D02*
X390Y1225D01*
X1265Y1225D02*
X1386Y1225D01*
X268Y1224D02*
X390Y1224D01*
X1265Y1224D02*
X1386Y1224D01*
X268Y1223D02*
X390Y1223D01*
X1265Y1223D02*
X1386Y1223D01*
X268Y1222D02*
X390Y1222D01*
X1266Y1222D02*
X1386Y1222D01*
X268Y1221D02*
X390Y1221D01*
X1266Y1221D02*
X1385Y1221D01*
X269Y1220D02*
X390Y1220D01*
X1266Y1220D02*
X1385Y1220D01*
X269Y1219D02*
X390Y1219D01*
X1267Y1219D02*
X1385Y1219D01*
X270Y1218D02*
X390Y1218D01*
X1267Y1218D02*
X1384Y1218D01*
X270Y1217D02*
X390Y1217D01*
X1268Y1217D02*
X1384Y1217D01*
X271Y1216D02*
X390Y1216D01*
X1268Y1216D02*
X1383Y1216D01*
X271Y1215D02*
X390Y1215D01*
X1269Y1215D02*
X1383Y1215D01*
X272Y1214D02*
X390Y1214D01*
X1269Y1214D02*
X1382Y1214D01*
X272Y1213D02*
X390Y1213D01*
X1270Y1213D02*
X1382Y1213D01*
X273Y1212D02*
X390Y1212D01*
X1270Y1212D02*
X1381Y1212D01*
X274Y1211D02*
X390Y1211D01*
X1271Y1211D02*
X1380Y1211D01*
X274Y1210D02*
X390Y1210D01*
X1272Y1210D02*
X1379Y1210D01*
X275Y1209D02*
X390Y1209D01*
X1273Y1209D02*
X1379Y1209D01*
X276Y1208D02*
X390Y1208D01*
X1274Y1208D02*
X1378Y1208D01*
X277Y1207D02*
X390Y1207D01*
X1274Y1207D02*
X1377Y1207D01*
X278Y1206D02*
X390Y1206D01*
X1275Y1206D02*
X1376Y1206D01*
X279Y1205D02*
X390Y1205D01*
X1276Y1205D02*
X1375Y1205D01*
X280Y1204D02*
X376Y1204D01*
X379Y1204D02*
X390Y1204D01*
X1278Y1204D02*
X1374Y1204D01*
X281Y1203D02*
X375Y1203D01*
X379Y1203D02*
X390Y1203D01*
X1279Y1203D02*
X1373Y1203D01*
X283Y1202D02*
X374Y1202D01*
X380Y1202D02*
X390Y1202D01*
X1280Y1202D02*
X1371Y1202D01*
X284Y1201D02*
X372Y1201D01*
X380Y1201D02*
X390Y1201D01*
X1282Y1201D02*
X1370Y1201D01*
X286Y1200D02*
X371Y1200D01*
X380Y1200D02*
X390Y1200D01*
X1283Y1200D02*
X1368Y1200D01*
X287Y1199D02*
X369Y1199D01*
X381Y1199D02*
X390Y1199D01*
X1285Y1199D02*
X1366Y1199D01*
X290Y1198D02*
X367Y1198D01*
X381Y1198D02*
X390Y1198D01*
X1287Y1198D02*
X1364Y1198D01*
X292Y1197D02*
X364Y1197D01*
X381Y1197D02*
X390Y1197D01*
X1290Y1197D02*
X1362Y1197D01*
X295Y1196D02*
X361Y1196D01*
X382Y1196D02*
X390Y1196D01*
X1293Y1196D02*
X1358Y1196D01*
X382Y1195D02*
X390Y1195D01*
X382Y1194D02*
X390Y1194D01*
X383Y1193D02*
X390Y1193D01*
X383Y1192D02*
X390Y1192D01*
X383Y1191D02*
X390Y1191D01*
X384Y1190D02*
X390Y1190D01*
X384Y1189D02*
X390Y1189D01*
X384Y1188D02*
X390Y1188D01*
X385Y1187D02*
X390Y1187D01*
X385Y1186D02*
X390Y1186D01*
X385Y1185D02*
X390Y1185D01*
X386Y1184D02*
X390Y1184D01*
X386Y1183D02*
X390Y1183D01*
X386Y1182D02*
X390Y1182D01*
X387Y1181D02*
X390Y1181D01*
X387Y1180D02*
X390Y1180D01*
X387Y1179D02*
X390Y1179D01*
X388Y1178D02*
X390Y1178D01*
X388Y1177D02*
X390Y1177D01*
X388Y1176D02*
X390Y1176D01*
X389Y1175D02*
X390Y1175D01*
X389Y1174D02*
X390Y1174D01*
X389Y1173D02*
X390Y1173D01*
X390Y1172D02*
X390Y1172D01*
X371Y1171D02*
X371Y1171D01*
X390Y1171D02*
X390Y1171D01*
X371Y1170D02*
X371Y1170D01*
X371Y1169D02*
X372Y1169D01*
X371Y1168D02*
X372Y1168D01*
X301Y1167D02*
X356Y1167D01*
X371Y1167D02*
X373Y1167D01*
X1298Y1167D02*
X1353Y1167D01*
X295Y1166D02*
X362Y1166D01*
X371Y1166D02*
X373Y1166D01*
X1292Y1166D02*
X1359Y1166D01*
X292Y1165D02*
X365Y1165D01*
X371Y1165D02*
X374Y1165D01*
X1289Y1165D02*
X1362Y1165D01*
X289Y1164D02*
X367Y1164D01*
X371Y1164D02*
X374Y1164D01*
X1287Y1164D02*
X1365Y1164D01*
X287Y1163D02*
X375Y1163D01*
X1285Y1163D02*
X1367Y1163D01*
X285Y1162D02*
X375Y1162D01*
X1283Y1162D02*
X1368Y1162D01*
X284Y1161D02*
X376Y1161D01*
X1281Y1161D02*
X1370Y1161D01*
X282Y1160D02*
X376Y1160D01*
X1280Y1160D02*
X1371Y1160D01*
X281Y1159D02*
X377Y1159D01*
X1279Y1159D02*
X1373Y1159D01*
X280Y1158D02*
X377Y1158D01*
X1277Y1158D02*
X1374Y1158D01*
X279Y1157D02*
X378Y1157D01*
X1276Y1157D02*
X1375Y1157D01*
X278Y1156D02*
X379Y1156D01*
X1275Y1156D02*
X1376Y1156D01*
X277Y1155D02*
X380Y1155D01*
X1274Y1155D02*
X1377Y1155D01*
X276Y1154D02*
X380Y1154D01*
X1273Y1154D02*
X1378Y1154D01*
X275Y1153D02*
X381Y1153D01*
X1273Y1153D02*
X1379Y1153D01*
X274Y1152D02*
X382Y1152D01*
X1272Y1152D02*
X1380Y1152D01*
X274Y1151D02*
X383Y1151D01*
X1271Y1151D02*
X1380Y1151D01*
X273Y1150D02*
X384Y1150D01*
X1270Y1150D02*
X1381Y1150D01*
X272Y1149D02*
X384Y1149D01*
X1270Y1149D02*
X1382Y1149D01*
X272Y1148D02*
X385Y1148D01*
X1269Y1148D02*
X1382Y1148D01*
X271Y1147D02*
X385Y1147D01*
X1268Y1147D02*
X1383Y1147D01*
X270Y1146D02*
X386Y1146D01*
X1268Y1146D02*
X1383Y1146D01*
X270Y1145D02*
X386Y1145D01*
X1267Y1145D02*
X1384Y1145D01*
X270Y1144D02*
X387Y1144D01*
X1267Y1144D02*
X1384Y1144D01*
X269Y1143D02*
X387Y1143D01*
X1267Y1143D02*
X1385Y1143D01*
X269Y1142D02*
X388Y1142D01*
X1266Y1142D02*
X1385Y1142D01*
X268Y1141D02*
X388Y1141D01*
X1266Y1141D02*
X1386Y1141D01*
X268Y1140D02*
X388Y1140D01*
X1266Y1140D02*
X1386Y1140D01*
X268Y1139D02*
X389Y1139D01*
X1265Y1139D02*
X1386Y1139D01*
X268Y1138D02*
X389Y1138D01*
X1265Y1138D02*
X1386Y1138D01*
X267Y1137D02*
X327Y1137D01*
X330Y1137D02*
X389Y1137D01*
X1265Y1137D02*
X1323Y1137D01*
X1326Y1137D02*
X1387Y1137D01*
X267Y1136D02*
X324Y1136D01*
X333Y1136D02*
X389Y1136D01*
X1265Y1136D02*
X1321Y1136D01*
X1329Y1136D02*
X1387Y1136D01*
X267Y1135D02*
X323Y1135D01*
X333Y1135D02*
X389Y1135D01*
X1264Y1135D02*
X1320Y1135D01*
X1330Y1135D02*
X1387Y1135D01*
X267Y1134D02*
X322Y1134D01*
X334Y1134D02*
X390Y1134D01*
X1264Y1134D02*
X1319Y1134D01*
X1331Y1134D02*
X1387Y1134D01*
X267Y1133D02*
X322Y1133D01*
X335Y1133D02*
X390Y1133D01*
X1264Y1133D02*
X1319Y1133D01*
X1331Y1133D02*
X1387Y1133D01*
X267Y1132D02*
X322Y1132D01*
X335Y1132D02*
X390Y1132D01*
X1264Y1132D02*
X1318Y1132D01*
X1332Y1132D02*
X1387Y1132D01*
X267Y1131D02*
X321Y1131D01*
X335Y1131D02*
X390Y1131D01*
X1264Y1131D02*
X1318Y1131D01*
X1332Y1131D02*
X1387Y1131D01*
X267Y1130D02*
X322Y1130D01*
X335Y1130D02*
X390Y1130D01*
X1264Y1130D02*
X1318Y1130D01*
X1332Y1130D02*
X1387Y1130D01*
X267Y1129D02*
X322Y1129D01*
X334Y1129D02*
X390Y1129D01*
X1264Y1129D02*
X1319Y1129D01*
X1331Y1129D02*
X1387Y1129D01*
X267Y1128D02*
X323Y1128D01*
X334Y1128D02*
X390Y1128D01*
X1264Y1128D02*
X1319Y1128D01*
X1331Y1128D02*
X1387Y1128D01*
X267Y1127D02*
X323Y1127D01*
X333Y1127D02*
X390Y1127D01*
X1264Y1127D02*
X1320Y1127D01*
X1330Y1127D02*
X1387Y1127D01*
X267Y1126D02*
X324Y1126D01*
X332Y1126D02*
X390Y1126D01*
X1265Y1126D02*
X1321Y1126D01*
X1329Y1126D02*
X1387Y1126D01*
X267Y1125D02*
X390Y1125D01*
X1265Y1125D02*
X1387Y1125D01*
X268Y1124D02*
X390Y1124D01*
X1265Y1124D02*
X1386Y1124D01*
X268Y1123D02*
X390Y1123D01*
X1265Y1123D02*
X1386Y1123D01*
X268Y1122D02*
X390Y1122D01*
X1266Y1122D02*
X1386Y1122D01*
X268Y1121D02*
X390Y1121D01*
X1266Y1121D02*
X1385Y1121D01*
X269Y1120D02*
X390Y1120D01*
X1266Y1120D02*
X1385Y1120D01*
X269Y1119D02*
X390Y1119D01*
X1267Y1119D02*
X1385Y1119D01*
X270Y1118D02*
X390Y1118D01*
X1267Y1118D02*
X1384Y1118D01*
X270Y1117D02*
X390Y1117D01*
X1268Y1117D02*
X1384Y1117D01*
X271Y1116D02*
X390Y1116D01*
X1268Y1116D02*
X1383Y1116D01*
X271Y1115D02*
X390Y1115D01*
X1269Y1115D02*
X1383Y1115D01*
X272Y1114D02*
X390Y1114D01*
X1269Y1114D02*
X1382Y1114D01*
X272Y1113D02*
X390Y1113D01*
X1270Y1113D02*
X1382Y1113D01*
X273Y1112D02*
X390Y1112D01*
X1270Y1112D02*
X1381Y1112D01*
X274Y1111D02*
X390Y1111D01*
X1271Y1111D02*
X1380Y1111D01*
X274Y1110D02*
X390Y1110D01*
X1272Y1110D02*
X1379Y1110D01*
X275Y1109D02*
X390Y1109D01*
X1273Y1109D02*
X1379Y1109D01*
X276Y1108D02*
X390Y1108D01*
X1274Y1108D02*
X1378Y1108D01*
X277Y1107D02*
X379Y1107D01*
X382Y1107D02*
X390Y1107D01*
X1274Y1107D02*
X1377Y1107D01*
X278Y1106D02*
X378Y1106D01*
X382Y1106D02*
X390Y1106D01*
X1275Y1106D02*
X1376Y1106D01*
X279Y1105D02*
X377Y1105D01*
X383Y1105D02*
X390Y1105D01*
X1276Y1105D02*
X1375Y1105D01*
X280Y1104D02*
X376Y1104D01*
X383Y1104D02*
X390Y1104D01*
X1278Y1104D02*
X1374Y1104D01*
X281Y1103D02*
X375Y1103D01*
X384Y1103D02*
X390Y1103D01*
X1279Y1103D02*
X1373Y1103D01*
X283Y1102D02*
X374Y1102D01*
X384Y1102D02*
X390Y1102D01*
X1280Y1102D02*
X1371Y1102D01*
X284Y1101D02*
X372Y1101D01*
X385Y1101D02*
X390Y1101D01*
X1282Y1101D02*
X1370Y1101D01*
X286Y1100D02*
X371Y1100D01*
X385Y1100D02*
X390Y1100D01*
X1283Y1100D02*
X1368Y1100D01*
X288Y1099D02*
X369Y1099D01*
X386Y1099D02*
X390Y1099D01*
X1285Y1099D02*
X1366Y1099D01*
X290Y1098D02*
X367Y1098D01*
X386Y1098D02*
X390Y1098D01*
X1287Y1098D02*
X1364Y1098D01*
X292Y1097D02*
X364Y1097D01*
X387Y1097D02*
X390Y1097D01*
X1290Y1097D02*
X1362Y1097D01*
X295Y1096D02*
X361Y1096D01*
X387Y1096D02*
X390Y1096D01*
X1293Y1096D02*
X1358Y1096D01*
X388Y1095D02*
X390Y1095D01*
X388Y1094D02*
X390Y1094D01*
X389Y1093D02*
X390Y1093D01*
X389Y1092D02*
X390Y1092D01*
X390Y1091D02*
X390Y1091D01*
X390Y1090D02*
X390Y1090D01*
X301Y1067D02*
X356Y1067D01*
X1298Y1067D02*
X1353Y1067D01*
X295Y1066D02*
X362Y1066D01*
X1292Y1066D02*
X1359Y1066D01*
X292Y1065D02*
X365Y1065D01*
X1289Y1065D02*
X1362Y1065D01*
X289Y1064D02*
X367Y1064D01*
X1287Y1064D02*
X1365Y1064D01*
X287Y1063D02*
X369Y1063D01*
X1285Y1063D02*
X1367Y1063D01*
X285Y1062D02*
X371Y1062D01*
X1283Y1062D02*
X1368Y1062D01*
X284Y1061D02*
X373Y1061D01*
X1281Y1061D02*
X1370Y1061D01*
X282Y1060D02*
X374Y1060D01*
X1280Y1060D02*
X1371Y1060D01*
X281Y1059D02*
X375Y1059D01*
X1279Y1059D02*
X1373Y1059D01*
X280Y1058D02*
X376Y1058D01*
X1277Y1058D02*
X1374Y1058D01*
X279Y1057D02*
X378Y1057D01*
X1276Y1057D02*
X1375Y1057D01*
X278Y1056D02*
X379Y1056D01*
X1275Y1056D02*
X1376Y1056D01*
X277Y1055D02*
X380Y1055D01*
X1274Y1055D02*
X1377Y1055D01*
X276Y1054D02*
X380Y1054D01*
X1273Y1054D02*
X1378Y1054D01*
X275Y1053D02*
X381Y1053D01*
X1273Y1053D02*
X1379Y1053D01*
X274Y1052D02*
X382Y1052D01*
X1272Y1052D02*
X1380Y1052D01*
X274Y1051D02*
X383Y1051D01*
X1271Y1051D02*
X1380Y1051D01*
X273Y1050D02*
X384Y1050D01*
X1270Y1050D02*
X1381Y1050D01*
X272Y1049D02*
X384Y1049D01*
X1270Y1049D02*
X1382Y1049D01*
X272Y1048D02*
X385Y1048D01*
X1269Y1048D02*
X1382Y1048D01*
X271Y1047D02*
X385Y1047D01*
X1268Y1047D02*
X1383Y1047D01*
X270Y1046D02*
X386Y1046D01*
X1268Y1046D02*
X1383Y1046D01*
X270Y1045D02*
X386Y1045D01*
X1267Y1045D02*
X1384Y1045D01*
X270Y1044D02*
X387Y1044D01*
X1267Y1044D02*
X1384Y1044D01*
X269Y1043D02*
X387Y1043D01*
X1267Y1043D02*
X1385Y1043D01*
X269Y1042D02*
X388Y1042D01*
X1266Y1042D02*
X1385Y1042D01*
X268Y1041D02*
X388Y1041D01*
X1266Y1041D02*
X1385Y1041D01*
X268Y1040D02*
X388Y1040D01*
X1266Y1040D02*
X1386Y1040D01*
X268Y1039D02*
X389Y1039D01*
X1265Y1039D02*
X1386Y1039D01*
X268Y1038D02*
X389Y1038D01*
X1265Y1038D02*
X1386Y1038D01*
X267Y1037D02*
X326Y1037D01*
X330Y1037D02*
X389Y1037D01*
X1265Y1037D02*
X1323Y1037D01*
X1327Y1037D02*
X1387Y1037D01*
X267Y1036D02*
X324Y1036D01*
X333Y1036D02*
X389Y1036D01*
X1265Y1036D02*
X1320Y1036D01*
X1330Y1036D02*
X1387Y1036D01*
X267Y1035D02*
X323Y1035D01*
X334Y1035D02*
X389Y1035D01*
X1264Y1035D02*
X1319Y1035D01*
X1331Y1035D02*
X1387Y1035D01*
X267Y1034D02*
X322Y1034D01*
X334Y1034D02*
X390Y1034D01*
X1264Y1034D02*
X1319Y1034D01*
X1331Y1034D02*
X1387Y1034D01*
X267Y1033D02*
X322Y1033D01*
X335Y1033D02*
X390Y1033D01*
X1264Y1033D02*
X1319Y1033D01*
X1331Y1033D02*
X1387Y1033D01*
X267Y1032D02*
X321Y1032D01*
X335Y1032D02*
X390Y1032D01*
X1264Y1032D02*
X1318Y1032D01*
X1331Y1032D02*
X1387Y1032D01*
X267Y1031D02*
X321Y1031D01*
X335Y1031D02*
X390Y1031D01*
X1264Y1031D02*
X1318Y1031D01*
X1331Y1031D02*
X1387Y1031D01*
X267Y1030D02*
X321Y1030D01*
X335Y1030D02*
X390Y1030D01*
X1264Y1030D02*
X1318Y1030D01*
X1331Y1030D02*
X1387Y1030D01*
X267Y1029D02*
X322Y1029D01*
X335Y1029D02*
X390Y1029D01*
X1264Y1029D02*
X1319Y1029D01*
X1331Y1029D02*
X1387Y1029D01*
X267Y1028D02*
X322Y1028D01*
X334Y1028D02*
X389Y1028D01*
X1264Y1028D02*
X1319Y1028D01*
X1331Y1028D02*
X1387Y1028D01*
X267Y1027D02*
X323Y1027D01*
X334Y1027D02*
X389Y1027D01*
X1264Y1027D02*
X1319Y1027D01*
X1331Y1027D02*
X1387Y1027D01*
X267Y1026D02*
X324Y1026D01*
X333Y1026D02*
X389Y1026D01*
X1265Y1026D02*
X1320Y1026D01*
X1330Y1026D02*
X1387Y1026D01*
X267Y1025D02*
X389Y1025D01*
X1265Y1025D02*
X1386Y1025D01*
X268Y1024D02*
X389Y1024D01*
X1265Y1024D02*
X1386Y1024D01*
X268Y1023D02*
X389Y1023D01*
X1265Y1023D02*
X1386Y1023D01*
X268Y1022D02*
X388Y1022D01*
X1266Y1022D02*
X1386Y1022D01*
X268Y1021D02*
X388Y1021D01*
X1266Y1021D02*
X1385Y1021D01*
X269Y1020D02*
X388Y1020D01*
X1266Y1020D02*
X1385Y1020D01*
X269Y1019D02*
X387Y1019D01*
X1267Y1019D02*
X1385Y1019D01*
X270Y1018D02*
X387Y1018D01*
X1267Y1018D02*
X1384Y1018D01*
X270Y1017D02*
X386Y1017D01*
X1268Y1017D02*
X1384Y1017D01*
X271Y1016D02*
X386Y1016D01*
X1268Y1016D02*
X1383Y1016D01*
X271Y1015D02*
X385Y1015D01*
X1269Y1015D02*
X1383Y1015D01*
X272Y1014D02*
X385Y1014D01*
X1269Y1014D02*
X1382Y1014D01*
X272Y1013D02*
X384Y1013D01*
X1270Y1013D02*
X1382Y1013D01*
X273Y1012D02*
X383Y1012D01*
X1270Y1012D02*
X1381Y1012D01*
X274Y1011D02*
X383Y1011D01*
X1271Y1011D02*
X1380Y1011D01*
X274Y1010D02*
X382Y1010D01*
X1272Y1010D02*
X1379Y1010D01*
X275Y1009D02*
X381Y1009D01*
X1273Y1009D02*
X1379Y1009D01*
X276Y1008D02*
X380Y1008D01*
X1274Y1008D02*
X1378Y1008D01*
X277Y1007D02*
X379Y1007D01*
X1274Y1007D02*
X1377Y1007D01*
X278Y1006D02*
X378Y1006D01*
X1275Y1006D02*
X1376Y1006D01*
X279Y1005D02*
X377Y1005D01*
X1276Y1005D02*
X1375Y1005D01*
X280Y1004D02*
X376Y1004D01*
X1278Y1004D02*
X1374Y1004D01*
X281Y1003D02*
X375Y1003D01*
X1279Y1003D02*
X1372Y1003D01*
X283Y1002D02*
X374Y1002D01*
X1280Y1002D02*
X1371Y1002D01*
X284Y1001D02*
X372Y1001D01*
X1282Y1001D02*
X1370Y1001D01*
X286Y1000D02*
X371Y1000D01*
X1283Y1000D02*
X1368Y1000D01*
X288Y999D02*
X369Y999D01*
X1285Y999D02*
X1366Y999D01*
X290Y998D02*
X367Y998D01*
X1287Y998D02*
X1364Y998D01*
X292Y997D02*
X364Y997D01*
X1290Y997D02*
X1362Y997D01*
X295Y996D02*
X361Y996D01*
X1293Y996D02*
X1358Y996D01*
X301Y967D02*
X356Y967D01*
X1298Y967D02*
X1353Y967D01*
X295Y966D02*
X362Y966D01*
X1292Y966D02*
X1359Y966D01*
X292Y965D02*
X365Y965D01*
X1289Y965D02*
X1362Y965D01*
X289Y964D02*
X367Y964D01*
X1287Y964D02*
X1365Y964D01*
X287Y963D02*
X369Y963D01*
X1285Y963D02*
X1367Y963D01*
X285Y962D02*
X371Y962D01*
X1283Y962D02*
X1368Y962D01*
X284Y961D02*
X373Y961D01*
X1281Y961D02*
X1370Y961D01*
X282Y960D02*
X374Y960D01*
X1280Y960D02*
X1371Y960D01*
X281Y959D02*
X375Y959D01*
X1279Y959D02*
X1373Y959D01*
X280Y958D02*
X376Y958D01*
X1277Y958D02*
X1374Y958D01*
X279Y957D02*
X378Y957D01*
X1276Y957D02*
X1375Y957D01*
X278Y956D02*
X379Y956D01*
X1275Y956D02*
X1376Y956D01*
X277Y955D02*
X380Y955D01*
X1274Y955D02*
X1377Y955D01*
X276Y954D02*
X380Y954D01*
X1273Y954D02*
X1378Y954D01*
X275Y953D02*
X381Y953D01*
X1273Y953D02*
X1379Y953D01*
X274Y952D02*
X382Y952D01*
X1272Y952D02*
X1380Y952D01*
X274Y951D02*
X383Y951D01*
X1271Y951D02*
X1380Y951D01*
X273Y950D02*
X384Y950D01*
X1270Y950D02*
X1381Y950D01*
X272Y949D02*
X384Y949D01*
X1270Y949D02*
X1382Y949D01*
X272Y948D02*
X385Y948D01*
X1269Y948D02*
X1382Y948D01*
X271Y947D02*
X385Y947D01*
X1268Y947D02*
X1383Y947D01*
X270Y946D02*
X386Y946D01*
X1268Y946D02*
X1383Y946D01*
X270Y945D02*
X386Y945D01*
X1267Y945D02*
X1384Y945D01*
X270Y944D02*
X387Y944D01*
X1267Y944D02*
X1384Y944D01*
X269Y943D02*
X387Y943D01*
X1267Y943D02*
X1385Y943D01*
X269Y942D02*
X388Y942D01*
X1266Y942D02*
X1385Y942D01*
X268Y941D02*
X388Y941D01*
X1266Y941D02*
X1385Y941D01*
X268Y940D02*
X388Y940D01*
X1266Y940D02*
X1386Y940D01*
X268Y939D02*
X389Y939D01*
X1265Y939D02*
X1386Y939D01*
X268Y938D02*
X389Y938D01*
X1265Y938D02*
X1386Y938D01*
X267Y937D02*
X327Y937D01*
X330Y937D02*
X389Y937D01*
X1265Y937D02*
X1323Y937D01*
X1327Y937D02*
X1387Y937D01*
X267Y936D02*
X323Y936D01*
X333Y936D02*
X389Y936D01*
X1265Y936D02*
X1320Y936D01*
X1330Y936D02*
X1387Y936D01*
X267Y935D02*
X322Y935D01*
X334Y935D02*
X389Y935D01*
X1264Y935D02*
X1319Y935D01*
X1331Y935D02*
X1387Y935D01*
X267Y934D02*
X322Y934D01*
X334Y934D02*
X390Y934D01*
X1264Y934D02*
X1319Y934D01*
X1331Y934D02*
X1387Y934D01*
X267Y933D02*
X322Y933D01*
X335Y933D02*
X390Y933D01*
X1264Y933D02*
X1319Y933D01*
X1331Y933D02*
X1387Y933D01*
X267Y932D02*
X322Y932D01*
X335Y932D02*
X390Y932D01*
X1264Y932D02*
X1318Y932D01*
X1331Y932D02*
X1387Y932D01*
X267Y931D02*
X322Y931D01*
X335Y931D02*
X390Y931D01*
X1264Y931D02*
X1318Y931D01*
X1331Y931D02*
X1387Y931D01*
X267Y930D02*
X322Y930D01*
X335Y930D02*
X390Y930D01*
X1264Y930D02*
X1318Y930D01*
X1331Y930D02*
X1387Y930D01*
X267Y929D02*
X322Y929D01*
X335Y929D02*
X390Y929D01*
X1264Y929D02*
X1319Y929D01*
X1331Y929D02*
X1387Y929D01*
X267Y928D02*
X322Y928D01*
X334Y928D02*
X390Y928D01*
X1264Y928D02*
X1319Y928D01*
X1331Y928D02*
X1387Y928D01*
X267Y927D02*
X322Y927D01*
X334Y927D02*
X390Y927D01*
X1264Y927D02*
X1319Y927D01*
X1331Y927D02*
X1387Y927D01*
X267Y926D02*
X323Y926D01*
X333Y926D02*
X390Y926D01*
X1265Y926D02*
X1320Y926D01*
X1330Y926D02*
X1387Y926D01*
X267Y925D02*
X390Y925D01*
X1265Y925D02*
X1386Y925D01*
X268Y924D02*
X390Y924D01*
X1265Y924D02*
X1386Y924D01*
X268Y923D02*
X390Y923D01*
X1265Y923D02*
X1386Y923D01*
X268Y922D02*
X390Y922D01*
X1266Y922D02*
X1386Y922D01*
X268Y921D02*
X388Y921D01*
X1266Y921D02*
X1385Y921D01*
X269Y920D02*
X388Y920D01*
X1266Y920D02*
X1385Y920D01*
X269Y919D02*
X387Y919D01*
X1267Y919D02*
X1385Y919D01*
X270Y918D02*
X387Y918D01*
X1267Y918D02*
X1384Y918D01*
X270Y917D02*
X386Y917D01*
X1268Y917D02*
X1384Y917D01*
X271Y916D02*
X386Y916D01*
X1268Y916D02*
X1383Y916D01*
X271Y915D02*
X385Y915D01*
X1269Y915D02*
X1383Y915D01*
X272Y914D02*
X385Y914D01*
X1269Y914D02*
X1382Y914D01*
X272Y913D02*
X384Y913D01*
X1270Y913D02*
X1382Y913D01*
X273Y912D02*
X383Y912D01*
X1270Y912D02*
X1381Y912D01*
X274Y911D02*
X383Y911D01*
X1271Y911D02*
X1380Y911D01*
X274Y910D02*
X382Y910D01*
X1272Y910D02*
X1379Y910D01*
X275Y909D02*
X381Y909D01*
X1273Y909D02*
X1379Y909D01*
X276Y908D02*
X380Y908D01*
X1274Y908D02*
X1378Y908D01*
X277Y907D02*
X379Y907D01*
X1274Y907D02*
X1377Y907D01*
X278Y906D02*
X378Y906D01*
X1275Y906D02*
X1376Y906D01*
X279Y905D02*
X377Y905D01*
X1276Y905D02*
X1375Y905D01*
X280Y904D02*
X376Y904D01*
X1278Y904D02*
X1374Y904D01*
X281Y903D02*
X375Y903D01*
X1279Y903D02*
X1372Y903D01*
X283Y902D02*
X374Y902D01*
X1280Y902D02*
X1371Y902D01*
X284Y901D02*
X372Y901D01*
X1282Y901D02*
X1370Y901D01*
X286Y900D02*
X371Y900D01*
X1283Y900D02*
X1368Y900D01*
X288Y899D02*
X369Y899D01*
X1285Y899D02*
X1366Y899D01*
X290Y898D02*
X367Y898D01*
X1287Y898D02*
X1364Y898D01*
X292Y897D02*
X364Y897D01*
X1290Y897D02*
X1362Y897D01*
X295Y896D02*
X361Y896D01*
X1293Y896D02*
X1358Y896D01*
X300Y867D02*
X356Y867D01*
X1298Y867D02*
X1354Y867D01*
X295Y866D02*
X362Y866D01*
X1292Y866D02*
X1359Y866D01*
X292Y865D02*
X365Y865D01*
X1289Y865D02*
X1362Y865D01*
X289Y864D02*
X367Y864D01*
X1287Y864D02*
X1365Y864D01*
X287Y863D02*
X369Y863D01*
X1285Y863D02*
X1367Y863D01*
X285Y862D02*
X371Y862D01*
X1283Y862D02*
X1369Y862D01*
X284Y861D02*
X373Y861D01*
X1281Y861D02*
X1370Y861D01*
X282Y860D02*
X374Y860D01*
X1280Y860D02*
X1372Y860D01*
X281Y859D02*
X375Y859D01*
X1279Y859D02*
X1373Y859D01*
X280Y858D02*
X376Y858D01*
X1277Y858D02*
X1374Y858D01*
X279Y857D02*
X378Y857D01*
X1276Y857D02*
X1375Y857D01*
X278Y856D02*
X379Y856D01*
X1275Y856D02*
X1376Y856D01*
X277Y855D02*
X380Y855D01*
X1274Y855D02*
X1377Y855D01*
X276Y854D02*
X380Y854D01*
X1273Y854D02*
X1378Y854D01*
X275Y853D02*
X381Y853D01*
X1273Y853D02*
X1379Y853D01*
X274Y852D02*
X382Y852D01*
X1272Y852D02*
X1380Y852D01*
X274Y851D02*
X383Y851D01*
X1271Y851D02*
X1380Y851D01*
X273Y850D02*
X384Y850D01*
X1270Y850D02*
X1381Y850D01*
X272Y849D02*
X384Y849D01*
X1270Y849D02*
X1382Y849D01*
X272Y848D02*
X385Y848D01*
X1269Y848D02*
X1382Y848D01*
X271Y847D02*
X385Y847D01*
X1268Y847D02*
X1383Y847D01*
X270Y846D02*
X386Y846D01*
X1268Y846D02*
X1383Y846D01*
X270Y845D02*
X386Y845D01*
X1267Y845D02*
X1384Y845D01*
X270Y844D02*
X387Y844D01*
X1267Y844D02*
X1384Y844D01*
X269Y843D02*
X387Y843D01*
X1267Y843D02*
X1385Y843D01*
X269Y842D02*
X388Y842D01*
X1266Y842D02*
X1385Y842D01*
X268Y841D02*
X388Y841D01*
X1266Y841D02*
X1386Y841D01*
X268Y840D02*
X388Y840D01*
X1266Y840D02*
X1386Y840D01*
X268Y839D02*
X389Y839D01*
X1265Y839D02*
X1386Y839D01*
X268Y838D02*
X389Y838D01*
X1265Y838D02*
X1386Y838D01*
X267Y837D02*
X326Y837D01*
X330Y837D02*
X389Y837D01*
X1265Y837D02*
X1323Y837D01*
X1327Y837D02*
X1387Y837D01*
X267Y836D02*
X323Y836D01*
X333Y836D02*
X389Y836D01*
X1265Y836D02*
X1320Y836D01*
X1330Y836D02*
X1387Y836D01*
X267Y835D02*
X322Y835D01*
X334Y835D02*
X389Y835D01*
X1264Y835D02*
X1319Y835D01*
X1331Y835D02*
X1387Y835D01*
X267Y834D02*
X322Y834D01*
X334Y834D02*
X390Y834D01*
X1264Y834D02*
X1319Y834D01*
X1331Y834D02*
X1387Y834D01*
X267Y833D02*
X322Y833D01*
X335Y833D02*
X390Y833D01*
X1264Y833D02*
X1319Y833D01*
X1331Y833D02*
X1387Y833D01*
X267Y832D02*
X322Y832D01*
X335Y832D02*
X390Y832D01*
X1264Y832D02*
X1318Y832D01*
X1331Y832D02*
X1387Y832D01*
X267Y831D02*
X322Y831D01*
X335Y831D02*
X390Y831D01*
X1264Y831D02*
X1318Y831D01*
X1331Y831D02*
X1387Y831D01*
X267Y830D02*
X322Y830D01*
X335Y830D02*
X390Y830D01*
X1264Y830D02*
X1318Y830D01*
X1331Y830D02*
X1387Y830D01*
X267Y829D02*
X322Y829D01*
X335Y829D02*
X390Y829D01*
X1264Y829D02*
X1319Y829D01*
X1331Y829D02*
X1387Y829D01*
X267Y828D02*
X322Y828D01*
X334Y828D02*
X390Y828D01*
X1264Y828D02*
X1319Y828D01*
X1331Y828D02*
X1387Y828D01*
X267Y827D02*
X322Y827D01*
X334Y827D02*
X390Y827D01*
X1264Y827D02*
X1319Y827D01*
X1331Y827D02*
X1387Y827D01*
X267Y826D02*
X323Y826D01*
X333Y826D02*
X390Y826D01*
X1265Y826D02*
X1320Y826D01*
X1330Y826D02*
X1387Y826D01*
X267Y825D02*
X390Y825D01*
X1265Y825D02*
X1387Y825D01*
X268Y824D02*
X390Y824D01*
X1265Y824D02*
X1386Y824D01*
X268Y823D02*
X390Y823D01*
X1265Y823D02*
X1386Y823D01*
X268Y822D02*
X390Y822D01*
X1266Y822D02*
X1386Y822D01*
X268Y821D02*
X388Y821D01*
X1266Y821D02*
X1385Y821D01*
X269Y820D02*
X388Y820D01*
X1266Y820D02*
X1385Y820D01*
X269Y819D02*
X387Y819D01*
X1267Y819D02*
X1385Y819D01*
X270Y818D02*
X387Y818D01*
X1267Y818D02*
X1384Y818D01*
X270Y817D02*
X386Y817D01*
X1268Y817D02*
X1384Y817D01*
X271Y816D02*
X386Y816D01*
X1268Y816D02*
X1383Y816D01*
X271Y815D02*
X385Y815D01*
X1269Y815D02*
X1383Y815D01*
X272Y814D02*
X385Y814D01*
X1269Y814D02*
X1382Y814D01*
X272Y813D02*
X384Y813D01*
X1270Y813D02*
X1382Y813D01*
X273Y812D02*
X383Y812D01*
X1270Y812D02*
X1381Y812D01*
X274Y811D02*
X383Y811D01*
X1271Y811D02*
X1380Y811D01*
X274Y810D02*
X382Y810D01*
X1272Y810D02*
X1379Y810D01*
X275Y809D02*
X381Y809D01*
X1273Y809D02*
X1379Y809D01*
X276Y808D02*
X380Y808D01*
X1274Y808D02*
X1378Y808D01*
X277Y807D02*
X379Y807D01*
X1274Y807D02*
X1377Y807D01*
X278Y806D02*
X378Y806D01*
X1275Y806D02*
X1376Y806D01*
X279Y805D02*
X377Y805D01*
X1277Y805D02*
X1375Y805D01*
X280Y804D02*
X376Y804D01*
X1278Y804D02*
X1374Y804D01*
X281Y803D02*
X375Y803D01*
X1279Y803D02*
X1373Y803D01*
X283Y802D02*
X374Y802D01*
X1280Y802D02*
X1371Y802D01*
X284Y801D02*
X372Y801D01*
X1282Y801D02*
X1370Y801D01*
X286Y800D02*
X371Y800D01*
X1283Y800D02*
X1368Y800D01*
X288Y799D02*
X369Y799D01*
X1285Y799D02*
X1366Y799D01*
X290Y798D02*
X367Y798D01*
X1287Y798D02*
X1364Y798D01*
X292Y797D02*
X364Y797D01*
X1290Y797D02*
X1362Y797D01*
X296Y796D02*
X361Y796D01*
X1293Y796D02*
X1358Y796D01*
X300Y767D02*
X356Y767D01*
X1298Y767D02*
X1353Y767D01*
X295Y766D02*
X362Y766D01*
X1292Y766D02*
X1359Y766D01*
X292Y765D02*
X365Y765D01*
X1289Y765D02*
X1362Y765D01*
X289Y764D02*
X367Y764D01*
X1287Y764D02*
X1365Y764D01*
X287Y763D02*
X369Y763D01*
X1285Y763D02*
X1367Y763D01*
X285Y762D02*
X371Y762D01*
X1283Y762D02*
X1368Y762D01*
X284Y761D02*
X373Y761D01*
X1281Y761D02*
X1370Y761D01*
X282Y760D02*
X374Y760D01*
X1280Y760D02*
X1371Y760D01*
X281Y759D02*
X375Y759D01*
X1279Y759D02*
X1373Y759D01*
X280Y758D02*
X376Y758D01*
X1277Y758D02*
X1374Y758D01*
X279Y757D02*
X378Y757D01*
X1276Y757D02*
X1375Y757D01*
X278Y756D02*
X379Y756D01*
X1275Y756D02*
X1376Y756D01*
X277Y755D02*
X380Y755D01*
X1274Y755D02*
X1377Y755D01*
X276Y754D02*
X380Y754D01*
X1273Y754D02*
X1378Y754D01*
X275Y753D02*
X381Y753D01*
X1272Y753D02*
X1379Y753D01*
X274Y752D02*
X382Y752D01*
X1272Y752D02*
X1380Y752D01*
X273Y751D02*
X383Y751D01*
X1271Y751D02*
X1380Y751D01*
X273Y750D02*
X384Y750D01*
X1270Y750D02*
X1381Y750D01*
X272Y749D02*
X384Y749D01*
X1270Y749D02*
X1382Y749D01*
X272Y748D02*
X385Y748D01*
X1269Y748D02*
X1382Y748D01*
X271Y747D02*
X385Y747D01*
X1268Y747D02*
X1383Y747D01*
X270Y746D02*
X386Y746D01*
X1268Y746D02*
X1383Y746D01*
X270Y745D02*
X386Y745D01*
X1267Y745D02*
X1384Y745D01*
X270Y744D02*
X387Y744D01*
X1267Y744D02*
X1384Y744D01*
X269Y743D02*
X387Y743D01*
X1267Y743D02*
X1385Y743D01*
X269Y742D02*
X388Y742D01*
X1266Y742D02*
X1385Y742D01*
X268Y741D02*
X388Y741D01*
X1266Y741D02*
X1385Y741D01*
X268Y740D02*
X388Y740D01*
X1266Y740D02*
X1386Y740D01*
X268Y739D02*
X389Y739D01*
X1265Y739D02*
X1386Y739D01*
X268Y738D02*
X389Y738D01*
X1265Y738D02*
X1386Y738D01*
X267Y737D02*
X326Y737D01*
X331Y737D02*
X389Y737D01*
X1265Y737D02*
X1323Y737D01*
X1327Y737D02*
X1387Y737D01*
X267Y736D02*
X324Y736D01*
X333Y736D02*
X389Y736D01*
X1265Y736D02*
X1320Y736D01*
X1329Y736D02*
X1387Y736D01*
X267Y735D02*
X323Y735D01*
X334Y735D02*
X389Y735D01*
X1264Y735D02*
X1320Y735D01*
X1330Y735D02*
X1387Y735D01*
X267Y734D02*
X322Y734D01*
X334Y734D02*
X390Y734D01*
X1264Y734D02*
X1319Y734D01*
X1331Y734D02*
X1387Y734D01*
X267Y733D02*
X322Y733D01*
X335Y733D02*
X390Y733D01*
X1264Y733D02*
X1318Y733D01*
X1331Y733D02*
X1387Y733D01*
X267Y732D02*
X321Y732D01*
X335Y732D02*
X390Y732D01*
X1264Y732D02*
X1318Y732D01*
X1332Y732D02*
X1387Y732D01*
X267Y731D02*
X321Y731D01*
X335Y731D02*
X390Y731D01*
X1264Y731D02*
X1318Y731D01*
X1332Y731D02*
X1387Y731D01*
X267Y730D02*
X321Y730D01*
X335Y730D02*
X390Y730D01*
X1264Y730D02*
X1318Y730D01*
X1332Y730D02*
X1387Y730D01*
X267Y729D02*
X322Y729D01*
X335Y729D02*
X390Y729D01*
X1264Y729D02*
X1319Y729D01*
X1331Y729D02*
X1387Y729D01*
X267Y728D02*
X322Y728D01*
X334Y728D02*
X390Y728D01*
X1264Y728D02*
X1319Y728D01*
X1331Y728D02*
X1387Y728D01*
X267Y727D02*
X323Y727D01*
X333Y727D02*
X390Y727D01*
X1264Y727D02*
X1320Y727D01*
X1330Y727D02*
X1387Y727D01*
X267Y726D02*
X324Y726D01*
X333Y726D02*
X390Y726D01*
X1265Y726D02*
X1321Y726D01*
X1329Y726D02*
X1387Y726D01*
X267Y725D02*
X390Y725D01*
X1265Y725D02*
X1386Y725D01*
X268Y724D02*
X390Y724D01*
X1265Y724D02*
X1386Y724D01*
X268Y723D02*
X390Y723D01*
X1265Y723D02*
X1386Y723D01*
X268Y722D02*
X390Y722D01*
X1266Y722D02*
X1386Y722D01*
X268Y721D02*
X388Y721D01*
X1266Y721D02*
X1385Y721D01*
X269Y720D02*
X388Y720D01*
X1266Y720D02*
X1385Y720D01*
X269Y719D02*
X387Y719D01*
X1267Y719D02*
X1385Y719D01*
X270Y718D02*
X387Y718D01*
X1267Y718D02*
X1384Y718D01*
X270Y717D02*
X386Y717D01*
X1268Y717D02*
X1384Y717D01*
X271Y716D02*
X386Y716D01*
X1268Y716D02*
X1383Y716D01*
X271Y715D02*
X385Y715D01*
X1269Y715D02*
X1383Y715D01*
X272Y714D02*
X385Y714D01*
X1269Y714D02*
X1382Y714D01*
X272Y713D02*
X384Y713D01*
X1270Y713D02*
X1382Y713D01*
X273Y712D02*
X383Y712D01*
X1270Y712D02*
X1381Y712D01*
X274Y711D02*
X383Y711D01*
X1271Y711D02*
X1380Y711D01*
X274Y710D02*
X382Y710D01*
X1272Y710D02*
X1379Y710D01*
X275Y709D02*
X381Y709D01*
X1273Y709D02*
X1379Y709D01*
X276Y708D02*
X380Y708D01*
X1274Y708D02*
X1378Y708D01*
X277Y707D02*
X379Y707D01*
X1274Y707D02*
X1377Y707D01*
X278Y706D02*
X378Y706D01*
X1275Y706D02*
X1376Y706D01*
X279Y705D02*
X377Y705D01*
X1277Y705D02*
X1375Y705D01*
X280Y704D02*
X376Y704D01*
X1278Y704D02*
X1374Y704D01*
X281Y703D02*
X375Y703D01*
X1279Y703D02*
X1372Y703D01*
X283Y702D02*
X374Y702D01*
X1280Y702D02*
X1371Y702D01*
X284Y701D02*
X372Y701D01*
X1282Y701D02*
X1370Y701D01*
X286Y700D02*
X371Y700D01*
X1283Y700D02*
X1368Y700D01*
X288Y699D02*
X369Y699D01*
X1285Y699D02*
X1366Y699D01*
X290Y698D02*
X367Y698D01*
X1287Y698D02*
X1364Y698D01*
X292Y697D02*
X364Y697D01*
X1290Y697D02*
X1362Y697D01*
X296Y696D02*
X361Y696D01*
X1293Y696D02*
X1358Y696D01*
X300Y667D02*
X356Y667D01*
X1298Y667D02*
X1354Y667D01*
X295Y666D02*
X362Y666D01*
X1292Y666D02*
X1359Y666D01*
X291Y665D02*
X365Y665D01*
X1289Y665D02*
X1362Y665D01*
X289Y664D02*
X367Y664D01*
X1287Y664D02*
X1365Y664D01*
X287Y663D02*
X369Y663D01*
X1285Y663D02*
X1367Y663D01*
X285Y662D02*
X371Y662D01*
X1283Y662D02*
X1369Y662D01*
X284Y661D02*
X373Y661D01*
X1281Y661D02*
X1370Y661D01*
X282Y660D02*
X374Y660D01*
X1280Y660D02*
X1372Y660D01*
X281Y659D02*
X375Y659D01*
X1279Y659D02*
X1373Y659D01*
X280Y658D02*
X377Y658D01*
X1277Y658D02*
X1374Y658D01*
X279Y657D02*
X378Y657D01*
X1276Y657D02*
X1375Y657D01*
X278Y656D02*
X379Y656D01*
X1275Y656D02*
X1376Y656D01*
X277Y655D02*
X380Y655D01*
X1274Y655D02*
X1377Y655D01*
X276Y654D02*
X381Y654D01*
X1273Y654D02*
X1378Y654D01*
X275Y653D02*
X381Y653D01*
X1272Y653D02*
X1379Y653D01*
X274Y652D02*
X382Y652D01*
X1272Y652D02*
X1380Y652D01*
X273Y651D02*
X383Y651D01*
X1271Y651D02*
X1380Y651D01*
X273Y650D02*
X384Y650D01*
X1270Y650D02*
X1381Y650D01*
X272Y649D02*
X384Y649D01*
X1270Y649D02*
X1382Y649D01*
X272Y648D02*
X385Y648D01*
X1269Y648D02*
X1382Y648D01*
X271Y647D02*
X385Y647D01*
X1268Y647D02*
X1383Y647D01*
X270Y646D02*
X386Y646D01*
X1268Y646D02*
X1383Y646D01*
X270Y645D02*
X386Y645D01*
X1267Y645D02*
X1384Y645D01*
X270Y644D02*
X387Y644D01*
X1267Y644D02*
X1384Y644D01*
X269Y643D02*
X387Y643D01*
X1267Y643D02*
X1385Y643D01*
X269Y642D02*
X388Y642D01*
X1266Y642D02*
X1385Y642D01*
X268Y641D02*
X388Y641D01*
X1266Y641D02*
X1386Y641D01*
X268Y640D02*
X388Y640D01*
X1266Y640D02*
X1386Y640D01*
X268Y639D02*
X389Y639D01*
X1265Y639D02*
X1386Y639D01*
X268Y638D02*
X389Y638D01*
X1265Y638D02*
X1386Y638D01*
X267Y637D02*
X326Y637D01*
X331Y637D02*
X389Y637D01*
X1265Y637D02*
X1323Y637D01*
X1327Y637D02*
X1387Y637D01*
X267Y636D02*
X324Y636D01*
X333Y636D02*
X389Y636D01*
X1265Y636D02*
X1320Y636D01*
X1329Y636D02*
X1387Y636D01*
X267Y635D02*
X323Y635D01*
X334Y635D02*
X389Y635D01*
X1264Y635D02*
X1320Y635D01*
X1330Y635D02*
X1387Y635D01*
X267Y634D02*
X322Y634D01*
X334Y634D02*
X390Y634D01*
X1264Y634D02*
X1319Y634D01*
X1331Y634D02*
X1387Y634D01*
X267Y633D02*
X322Y633D01*
X335Y633D02*
X390Y633D01*
X1264Y633D02*
X1318Y633D01*
X1331Y633D02*
X1387Y633D01*
X267Y632D02*
X321Y632D01*
X335Y632D02*
X390Y632D01*
X1264Y632D02*
X1318Y632D01*
X1332Y632D02*
X1387Y632D01*
X267Y631D02*
X321Y631D01*
X335Y631D02*
X390Y631D01*
X1264Y631D02*
X1318Y631D01*
X1332Y631D02*
X1387Y631D01*
X267Y630D02*
X321Y630D01*
X335Y630D02*
X390Y630D01*
X1264Y630D02*
X1318Y630D01*
X1332Y630D02*
X1387Y630D01*
X267Y629D02*
X322Y629D01*
X335Y629D02*
X390Y629D01*
X1264Y629D02*
X1319Y629D01*
X1331Y629D02*
X1387Y629D01*
X267Y628D02*
X322Y628D01*
X334Y628D02*
X390Y628D01*
X1264Y628D02*
X1319Y628D01*
X1331Y628D02*
X1387Y628D01*
X267Y627D02*
X323Y627D01*
X333Y627D02*
X390Y627D01*
X1264Y627D02*
X1320Y627D01*
X1330Y627D02*
X1387Y627D01*
X267Y626D02*
X324Y626D01*
X333Y626D02*
X390Y626D01*
X1265Y626D02*
X1321Y626D01*
X1329Y626D02*
X1387Y626D01*
X267Y625D02*
X390Y625D01*
X1265Y625D02*
X1387Y625D01*
X268Y624D02*
X390Y624D01*
X1265Y624D02*
X1386Y624D01*
X268Y623D02*
X390Y623D01*
X1265Y623D02*
X1386Y623D01*
X268Y622D02*
X390Y622D01*
X1266Y622D02*
X1386Y622D01*
X268Y621D02*
X388Y621D01*
X1266Y621D02*
X1385Y621D01*
X269Y620D02*
X388Y620D01*
X1266Y620D02*
X1385Y620D01*
X269Y619D02*
X387Y619D01*
X1267Y619D02*
X1385Y619D01*
X270Y618D02*
X387Y618D01*
X1267Y618D02*
X1384Y618D01*
X270Y617D02*
X386Y617D01*
X1268Y617D02*
X1384Y617D01*
X271Y616D02*
X386Y616D01*
X1268Y616D02*
X1383Y616D01*
X271Y615D02*
X385Y615D01*
X1269Y615D02*
X1383Y615D01*
X272Y614D02*
X385Y614D01*
X1269Y614D02*
X1382Y614D01*
X272Y613D02*
X384Y613D01*
X1270Y613D02*
X1382Y613D01*
X273Y612D02*
X383Y612D01*
X1270Y612D02*
X1381Y612D01*
X274Y611D02*
X383Y611D01*
X1271Y611D02*
X1380Y611D01*
X274Y610D02*
X382Y610D01*
X1272Y610D02*
X1379Y610D01*
X275Y609D02*
X381Y609D01*
X1273Y609D02*
X1379Y609D01*
X276Y608D02*
X380Y608D01*
X1274Y608D02*
X1378Y608D01*
X277Y607D02*
X379Y607D01*
X1274Y607D02*
X1377Y607D01*
X278Y606D02*
X378Y606D01*
X1275Y606D02*
X1376Y606D01*
X279Y605D02*
X377Y605D01*
X1277Y605D02*
X1375Y605D01*
X280Y604D02*
X376Y604D01*
X1278Y604D02*
X1374Y604D01*
X281Y603D02*
X375Y603D01*
X1279Y603D02*
X1373Y603D01*
X283Y602D02*
X374Y602D01*
X1280Y602D02*
X1371Y602D01*
X284Y601D02*
X372Y601D01*
X1282Y601D02*
X1370Y601D01*
X286Y600D02*
X371Y600D01*
X1283Y600D02*
X1368Y600D01*
X288Y599D02*
X369Y599D01*
X1285Y599D02*
X1366Y599D01*
X290Y598D02*
X367Y598D01*
X1287Y598D02*
X1364Y598D01*
X292Y597D02*
X364Y597D01*
X1290Y597D02*
X1362Y597D01*
X296Y596D02*
X361Y596D01*
X1293Y596D02*
X1358Y596D01*
X300Y567D02*
X356Y567D01*
X1298Y567D02*
X1354Y567D01*
X295Y566D02*
X362Y566D01*
X1292Y566D02*
X1359Y566D01*
X291Y565D02*
X365Y565D01*
X1289Y565D02*
X1362Y565D01*
X289Y564D02*
X367Y564D01*
X1287Y564D02*
X1365Y564D01*
X287Y563D02*
X369Y563D01*
X1285Y563D02*
X1367Y563D01*
X285Y562D02*
X371Y562D01*
X1283Y562D02*
X1369Y562D01*
X284Y561D02*
X373Y561D01*
X1281Y561D02*
X1370Y561D01*
X282Y560D02*
X374Y560D01*
X1280Y560D02*
X1371Y560D01*
X281Y559D02*
X375Y559D01*
X1279Y559D02*
X1373Y559D01*
X280Y558D02*
X377Y558D01*
X1277Y558D02*
X1374Y558D01*
X279Y557D02*
X378Y557D01*
X1276Y557D02*
X1375Y557D01*
X278Y556D02*
X379Y556D01*
X1275Y556D02*
X1376Y556D01*
X277Y555D02*
X380Y555D01*
X1274Y555D02*
X1377Y555D01*
X276Y554D02*
X381Y554D01*
X1273Y554D02*
X1378Y554D01*
X275Y553D02*
X381Y553D01*
X1272Y553D02*
X1379Y553D01*
X274Y552D02*
X382Y552D01*
X1272Y552D02*
X1380Y552D01*
X273Y551D02*
X383Y551D01*
X1271Y551D02*
X1380Y551D01*
X273Y550D02*
X384Y550D01*
X1270Y550D02*
X1381Y550D01*
X272Y549D02*
X384Y549D01*
X1270Y549D02*
X1382Y549D01*
X272Y548D02*
X385Y548D01*
X1269Y548D02*
X1382Y548D01*
X271Y547D02*
X385Y547D01*
X1268Y547D02*
X1383Y547D01*
X270Y546D02*
X386Y546D01*
X1268Y546D02*
X1383Y546D01*
X270Y545D02*
X386Y545D01*
X1267Y545D02*
X1384Y545D01*
X270Y544D02*
X387Y544D01*
X1267Y544D02*
X1384Y544D01*
X269Y543D02*
X387Y543D01*
X1267Y543D02*
X1385Y543D01*
X269Y542D02*
X388Y542D01*
X1266Y542D02*
X1385Y542D01*
X268Y541D02*
X388Y541D01*
X1266Y541D02*
X1385Y541D01*
X268Y540D02*
X388Y540D01*
X1265Y540D02*
X1386Y540D01*
X268Y539D02*
X389Y539D01*
X1265Y539D02*
X1386Y539D01*
X268Y538D02*
X389Y538D01*
X1265Y538D02*
X1386Y538D01*
X267Y537D02*
X326Y537D01*
X331Y537D02*
X389Y537D01*
X1265Y537D02*
X1322Y537D01*
X1327Y537D02*
X1387Y537D01*
X267Y536D02*
X324Y536D01*
X333Y536D02*
X389Y536D01*
X1265Y536D02*
X1320Y536D01*
X1329Y536D02*
X1387Y536D01*
X267Y535D02*
X323Y535D01*
X334Y535D02*
X389Y535D01*
X1264Y535D02*
X1320Y535D01*
X1330Y535D02*
X1387Y535D01*
X267Y534D02*
X322Y534D01*
X334Y534D02*
X390Y534D01*
X1264Y534D02*
X1319Y534D01*
X1331Y534D02*
X1387Y534D01*
X267Y533D02*
X322Y533D01*
X335Y533D02*
X390Y533D01*
X1264Y533D02*
X1318Y533D01*
X1331Y533D02*
X1387Y533D01*
X267Y532D02*
X321Y532D01*
X335Y532D02*
X390Y532D01*
X1264Y532D02*
X1318Y532D01*
X1332Y532D02*
X1387Y532D01*
X267Y531D02*
X321Y531D01*
X335Y531D02*
X390Y531D01*
X1264Y531D02*
X1318Y531D01*
X1332Y531D02*
X1387Y531D01*
X267Y530D02*
X321Y530D01*
X335Y530D02*
X390Y530D01*
X1264Y530D02*
X1318Y530D01*
X1332Y530D02*
X1387Y530D01*
X267Y529D02*
X322Y529D01*
X335Y529D02*
X390Y529D01*
X1264Y529D02*
X1319Y529D01*
X1331Y529D02*
X1387Y529D01*
X267Y528D02*
X322Y528D01*
X334Y528D02*
X390Y528D01*
X1264Y528D02*
X1319Y528D01*
X1331Y528D02*
X1387Y528D01*
X267Y527D02*
X323Y527D01*
X333Y527D02*
X390Y527D01*
X1264Y527D02*
X1320Y527D01*
X1330Y527D02*
X1387Y527D01*
X267Y526D02*
X324Y526D01*
X333Y526D02*
X390Y526D01*
X1265Y526D02*
X1321Y526D01*
X1329Y526D02*
X1387Y526D01*
X267Y525D02*
X390Y525D01*
X1265Y525D02*
X1386Y525D01*
X268Y524D02*
X390Y524D01*
X1265Y524D02*
X1386Y524D01*
X268Y523D02*
X390Y523D01*
X1265Y523D02*
X1386Y523D01*
X268Y522D02*
X390Y522D01*
X1266Y522D02*
X1386Y522D01*
X268Y521D02*
X388Y521D01*
X1266Y521D02*
X1385Y521D01*
X269Y520D02*
X388Y520D01*
X1266Y520D02*
X1385Y520D01*
X269Y519D02*
X387Y519D01*
X1267Y519D02*
X1385Y519D01*
X270Y518D02*
X387Y518D01*
X1267Y518D02*
X1384Y518D01*
X270Y517D02*
X386Y517D01*
X1268Y517D02*
X1384Y517D01*
X271Y516D02*
X386Y516D01*
X1268Y516D02*
X1383Y516D01*
X271Y515D02*
X385Y515D01*
X1269Y515D02*
X1383Y515D01*
X272Y514D02*
X385Y514D01*
X1269Y514D02*
X1382Y514D01*
X272Y513D02*
X384Y513D01*
X1270Y513D02*
X1382Y513D01*
X273Y512D02*
X383Y512D01*
X1270Y512D02*
X1381Y512D01*
X274Y511D02*
X383Y511D01*
X1271Y511D02*
X1380Y511D01*
X274Y510D02*
X382Y510D01*
X1272Y510D02*
X1379Y510D01*
X275Y509D02*
X381Y509D01*
X1273Y509D02*
X1379Y509D01*
X276Y508D02*
X380Y508D01*
X1274Y508D02*
X1378Y508D01*
X277Y507D02*
X379Y507D01*
X1274Y507D02*
X1377Y507D01*
X278Y506D02*
X378Y506D01*
X1275Y506D02*
X1376Y506D01*
X279Y505D02*
X377Y505D01*
X1277Y505D02*
X1375Y505D01*
X280Y504D02*
X376Y504D01*
X1278Y504D02*
X1374Y504D01*
X281Y503D02*
X375Y503D01*
X1279Y503D02*
X1372Y503D01*
X283Y502D02*
X374Y502D01*
X1280Y502D02*
X1371Y502D01*
X284Y501D02*
X372Y501D01*
X1282Y501D02*
X1370Y501D01*
X286Y500D02*
X371Y500D01*
X1283Y500D02*
X1368Y500D01*
X288Y499D02*
X369Y499D01*
X1285Y499D02*
X1366Y499D01*
X290Y498D02*
X367Y498D01*
X1287Y498D02*
X1364Y498D01*
X292Y497D02*
X364Y497D01*
X1290Y497D02*
X1362Y497D01*
X296Y496D02*
X361Y496D01*
X1293Y496D02*
X1358Y496D01*
X300Y467D02*
X356Y467D01*
X1297Y467D02*
X1354Y467D01*
X294Y466D02*
X362Y466D01*
X1292Y466D02*
X1359Y466D01*
X291Y465D02*
X365Y465D01*
X1289Y465D02*
X1362Y465D01*
X289Y464D02*
X367Y464D01*
X1286Y464D02*
X1365Y464D01*
X287Y463D02*
X369Y463D01*
X1284Y463D02*
X1367Y463D01*
X285Y462D02*
X371Y462D01*
X1283Y462D02*
X1368Y462D01*
X284Y461D02*
X373Y461D01*
X1281Y461D02*
X1370Y461D01*
X282Y460D02*
X374Y460D01*
X1280Y460D02*
X1371Y460D01*
X281Y459D02*
X375Y459D01*
X1278Y459D02*
X1373Y459D01*
X280Y458D02*
X377Y458D01*
X1277Y458D02*
X1374Y458D01*
X279Y457D02*
X378Y457D01*
X1276Y457D02*
X1375Y457D01*
X278Y456D02*
X379Y456D01*
X1275Y456D02*
X1376Y456D01*
X277Y455D02*
X380Y455D01*
X1274Y455D02*
X1377Y455D01*
X276Y454D02*
X381Y454D01*
X1273Y454D02*
X1378Y454D01*
X275Y453D02*
X381Y453D01*
X1272Y453D02*
X1379Y453D01*
X274Y452D02*
X382Y452D01*
X1272Y452D02*
X1380Y452D01*
X273Y451D02*
X383Y451D01*
X1271Y451D02*
X1380Y451D01*
X273Y450D02*
X384Y450D01*
X1270Y450D02*
X1381Y450D01*
X272Y449D02*
X384Y449D01*
X1270Y449D02*
X1382Y449D01*
X272Y448D02*
X385Y448D01*
X1269Y448D02*
X1382Y448D01*
X271Y447D02*
X385Y447D01*
X1268Y447D02*
X1383Y447D01*
X270Y446D02*
X386Y446D01*
X1268Y446D02*
X1383Y446D01*
X270Y445D02*
X386Y445D01*
X1267Y445D02*
X1384Y445D01*
X270Y444D02*
X387Y444D01*
X1267Y444D02*
X1384Y444D01*
X269Y443D02*
X387Y443D01*
X1266Y443D02*
X1385Y443D01*
X269Y442D02*
X388Y442D01*
X1266Y442D02*
X1385Y442D01*
X268Y441D02*
X388Y441D01*
X1266Y441D02*
X1385Y441D01*
X268Y440D02*
X388Y440D01*
X1265Y440D02*
X1386Y440D01*
X268Y439D02*
X389Y439D01*
X1265Y439D02*
X1386Y439D01*
X268Y438D02*
X389Y438D01*
X1265Y438D02*
X1386Y438D01*
X267Y437D02*
X326Y437D01*
X330Y437D02*
X389Y437D01*
X1265Y437D02*
X1323Y437D01*
X1327Y437D02*
X1386Y437D01*
X267Y436D02*
X323Y436D01*
X333Y436D02*
X389Y436D01*
X1265Y436D02*
X1320Y436D01*
X1330Y436D02*
X1387Y436D01*
X267Y435D02*
X322Y435D01*
X334Y435D02*
X389Y435D01*
X1264Y435D02*
X1319Y435D01*
X1331Y435D02*
X1387Y435D01*
X267Y434D02*
X322Y434D01*
X334Y434D02*
X390Y434D01*
X1264Y434D02*
X1319Y434D01*
X1331Y434D02*
X1387Y434D01*
X267Y433D02*
X322Y433D01*
X335Y433D02*
X390Y433D01*
X1264Y433D02*
X1318Y433D01*
X1331Y433D02*
X1387Y433D01*
X267Y432D02*
X322Y432D01*
X335Y432D02*
X390Y432D01*
X1264Y432D02*
X1318Y432D01*
X1331Y432D02*
X1387Y432D01*
X267Y431D02*
X322Y431D01*
X335Y431D02*
X390Y431D01*
X1264Y431D02*
X1318Y431D01*
X1331Y431D02*
X1387Y431D01*
X267Y430D02*
X322Y430D01*
X335Y430D02*
X390Y430D01*
X1264Y430D02*
X1318Y430D01*
X1331Y430D02*
X1387Y430D01*
X267Y429D02*
X322Y429D01*
X335Y429D02*
X390Y429D01*
X1264Y429D02*
X1318Y429D01*
X1331Y429D02*
X1387Y429D01*
X267Y428D02*
X322Y428D01*
X334Y428D02*
X390Y428D01*
X1264Y428D02*
X1319Y428D01*
X1331Y428D02*
X1387Y428D01*
X267Y427D02*
X322Y427D01*
X334Y427D02*
X390Y427D01*
X1264Y427D02*
X1319Y427D01*
X1331Y427D02*
X1387Y427D01*
X267Y426D02*
X323Y426D01*
X333Y426D02*
X390Y426D01*
X1265Y426D02*
X1320Y426D01*
X1330Y426D02*
X1387Y426D01*
X267Y425D02*
X390Y425D01*
X1265Y425D02*
X1386Y425D01*
X268Y424D02*
X390Y424D01*
X1265Y424D02*
X1386Y424D01*
X268Y423D02*
X390Y423D01*
X1265Y423D02*
X1386Y423D01*
X268Y422D02*
X390Y422D01*
X1266Y422D02*
X1386Y422D01*
X268Y421D02*
X388Y421D01*
X1266Y421D02*
X1385Y421D01*
X269Y420D02*
X388Y420D01*
X1266Y420D02*
X1385Y420D01*
X269Y419D02*
X387Y419D01*
X1267Y419D02*
X1385Y419D01*
X270Y418D02*
X387Y418D01*
X1267Y418D02*
X1384Y418D01*
X270Y417D02*
X386Y417D01*
X1267Y417D02*
X1384Y417D01*
X271Y416D02*
X386Y416D01*
X1268Y416D02*
X1383Y416D01*
X271Y415D02*
X385Y415D01*
X1269Y415D02*
X1383Y415D01*
X272Y414D02*
X385Y414D01*
X1269Y414D02*
X1382Y414D01*
X272Y413D02*
X384Y413D01*
X1270Y413D02*
X1381Y413D01*
X273Y412D02*
X383Y412D01*
X1270Y412D02*
X1381Y412D01*
X274Y411D02*
X383Y411D01*
X1271Y411D02*
X1380Y411D01*
X274Y410D02*
X382Y410D01*
X1272Y410D02*
X1379Y410D01*
X275Y409D02*
X381Y409D01*
X1273Y409D02*
X1379Y409D01*
X276Y408D02*
X380Y408D01*
X1273Y408D02*
X1378Y408D01*
X277Y407D02*
X379Y407D01*
X1274Y407D02*
X1377Y407D01*
X278Y406D02*
X378Y406D01*
X1275Y406D02*
X1376Y406D01*
X279Y405D02*
X377Y405D01*
X1276Y405D02*
X1375Y405D01*
X280Y404D02*
X376Y404D01*
X1278Y404D02*
X1374Y404D01*
X281Y403D02*
X375Y403D01*
X1279Y403D02*
X1372Y403D01*
X283Y402D02*
X374Y402D01*
X1280Y402D02*
X1371Y402D01*
X284Y401D02*
X372Y401D01*
X1282Y401D02*
X1370Y401D01*
X286Y400D02*
X371Y400D01*
X1283Y400D02*
X1368Y400D01*
X288Y399D02*
X369Y399D01*
X1285Y399D02*
X1366Y399D01*
X290Y398D02*
X367Y398D01*
X1287Y398D02*
X1364Y398D01*
X292Y397D02*
X364Y397D01*
X1290Y397D02*
X1362Y397D01*
X296Y396D02*
X361Y396D01*
X1293Y396D02*
X1358Y396D01*
D02*
G04 End of Mask0*
M02*